<svg id="photography" enable-background="new 0 0 300 300" height="512" viewBox="0 0 300 300" width="512" xmlns="http://www.w3.org/2000/svg"><g><circle cx="115.273" cy="122" fill="#d2ddff" r="86"/><g><path d="m63.133 87.487h101.501v101.501h-101.501z" fill="#fc8c29" transform="matrix(.793 -.61 .61 .793 -60.672 98.119)"/><path d="m104.605 213.408c-.172 0-.344-.012-.516-.033-1.055-.137-2.008-.688-2.656-1.527l-61.89-80.448c-1.344-1.752-1.02-4.262.734-5.609l80.445-61.893c1.75-1.352 4.258-1.018 5.609.73l61.895 80.445c.645.842.934 1.904.793 2.957-.137 1.051-.684 2.006-1.527 2.652l-80.449 61.895c-.703.542-1.559.831-2.438.831zm-56.281-83.717 57.012 74.107 74.109-57.016-57.015-74.104z" fill="#4c241d"/></g><g><path d="m76.134 100.489h75.498v75.498h-75.498z" fill="#fff" transform="matrix(.793 -.61 .61 .793 -60.672 98.119)"/><path d="m106.988 195.174c-1.199 0-2.387-.537-3.176-1.561l-46.039-59.836c-.645-.842-.934-1.904-.793-2.957.137-1.051.684-2.006 1.527-2.652l59.836-46.037c1.75-1.348 4.258-1.02 5.609.73l46.039 59.836c.645.842.934 1.904.793 2.957-.137 1.051-.684 2.006-1.527 2.652l-59.836 46.037c-.726.561-1.581.831-2.433.831zm-40.433-63.106 41.16 53.496 53.496-41.158-41.16-53.496z" fill="#4c241d"/></g><g><path d="m157.592 67.634h101.501v101.501h-101.501z" fill="#bd53b5" transform="matrix(.987 .164 -.164 .987 22.228 -32.555)"/><path d="m250.09 180.768c-.219 0-.438-.018-.66-.055l-100.129-16.641c-1.047-.174-1.98-.756-2.598-1.619s-.867-1.936-.691-2.982l16.641-100.127c.359-2.18 2.426-3.656 4.602-3.289l100.129 16.641c1.047.174 1.98.756 2.598 1.619s.867 1.936.691 2.982l-16.641 100.127c-.325 1.957-2.02 3.344-3.942 3.344zm-95.532-23.932 92.238 15.33 15.328-92.234-92.238-15.33z" fill="#4c241d"/></g><g><path d="m170.594 80.635h75.498v75.498h-75.498z" fill="#fff" transform="matrix(.987 .164 -.164 .987 22.228 -32.555)"/><path d="m239.394 165.811c-.219 0-.438-.018-.66-.055l-74.477-12.377c-1.047-.174-1.98-.756-2.598-1.619s-.867-1.936-.691-2.982l12.379-74.477c.359-2.18 2.414-3.648 4.602-3.289l74.477 12.379c1.047.174 1.98.756 2.598 1.619s.867 1.936.691 2.982l-12.379 74.475c-.324 1.957-2.02 3.344-3.942 3.344zm-69.879-19.668 66.586 11.066 11.066-66.584-66.586-11.066z" fill="#4c241d"/></g><g><path d="m243.33 260h-140.113c-5.492 0-9.943-4.452-9.943-9.943v-104.114c0-5.492 4.452-9.943 9.943-9.943h140.113c5.492 0 9.943 4.452 9.943 9.943v104.113c0 5.492-4.451 9.944-9.943 9.944z" fill="#6b4f5b"/><path d="m243.328 264h-140.109c-7.691 0-13.945-6.256-13.945-13.943v-104.114c0-7.688 6.254-13.943 13.945-13.943h140.109c7.691 0 13.945 6.256 13.945 13.943v104.113c0 7.688-6.254 13.944-13.945 13.944zm-140.109-124c-3.277 0-5.945 2.666-5.945 5.943v104.113c0 3.277 2.668 5.943 5.945 5.943h140.109c3.277 0 5.945-2.666 5.945-5.943v-104.113c0-3.277-2.668-5.943-5.945-5.943z" fill="#4c241d"/></g><path d="m253.273 184h-160c-2.211 0-4-1.791-4-4s1.789-4 4-4h160c2.211 0 4 1.791 4 4s-1.789 4-4 4z" fill="#4c241d"/><g><path d="m109.273 124h24v12h-24z" fill="#f53e28"/><path d="m133.273 140h-24c-2.211 0-4-1.791-4-4v-12c0-2.209 1.789-4 4-4h24c2.211 0 4 1.791 4 4v12c0 2.209-1.789 4-4 4zm-20-8h16v-4h-16z" fill="#4c241d"/></g><g><path d="m143.865 136.15 11.402-17.131c2.918-4.385 7.836-7.019 13.103-7.019h15.843c4.789 0 9.318 2.181 12.305 5.925l14.538 18.225z" fill="#b5a19c"/><path d="m211.055 140.15h-67.191c-1.477 0-2.828-.811-3.527-2.111-.695-1.301-.621-2.877.199-4.105l11.402-17.131c3.668-5.512 9.812-8.803 16.434-8.803h15.844c6.039 0 11.664 2.707 15.43 7.428l14.539 18.229c.957 1.201 1.141 2.846.477 4.23-.67 1.383-2.072 2.263-3.607 2.263zm-59.723-8h51.418l-9.359-11.732c-2.238-2.807-5.586-4.418-9.176-4.418h-15.844c-3.938 0-7.594 1.957-9.777 5.236z" fill="#4c241d"/></g><g fill="#4c241d"><path d="m57.273 56c-2.211 0-4-1.791-4-4v-12c0-2.209 1.789-4 4-4s4 1.791 4 4v12c0 2.209-1.789 4-4 4z"/><path d="m57.273 84c-2.211 0-4-1.791-4-4v-12c0-2.209 1.789-4 4-4s4 1.791 4 4v12c0 2.209-1.789 4-4 4z"/><path d="m49.273 64h-12c-2.211 0-4-1.791-4-4s1.789-4 4-4h12c2.211 0 4 1.791 4 4s-1.789 4-4 4z"/><path d="m77.273 64h-12c-2.211 0-4-1.791-4-4s1.789-4 4-4h12c2.211 0 4 1.791 4 4s-1.789 4-4 4z"/><path d="m55.273 232c-7.719 0-14-6.281-14-14s6.281-14 14-14 14 6.281 14 14-6.281 14-14 14zm0-20c-3.309 0-6 2.691-6 6s2.691 6 6 6 6-2.691 6-6-2.691-6-6-6z"/><circle cx="117.273" cy="48" r="4"/><circle cx="69.273" cy="256" r="4"/><circle cx="253.273" cy="44" r="4"/></g><g><circle cx="171.315" cy="198.568" fill="#b5a19c" r="38.679"/><path d="m171.316 241.248c-23.535 0-42.68-19.146-42.68-42.68s19.145-42.68 42.68-42.68c23.531 0 42.676 19.146 42.676 42.68s-19.144 42.68-42.676 42.68zm0-77.359c-19.121 0-34.68 15.557-34.68 34.68s15.559 34.68 34.68 34.68 34.676-15.557 34.676-34.68-15.555-34.68-34.676-34.68z" fill="#4c241d"/></g><g><circle cx="171.315" cy="198.568" fill="#26deeb" r="23.338"/><path d="m171.316 225.906c-15.074 0-27.34-12.264-27.34-27.338s12.266-27.338 27.34-27.338 27.336 12.264 27.336 27.338-12.262 27.338-27.336 27.338zm0-46.676c-10.664 0-19.34 8.676-19.34 19.338s8.676 19.338 19.34 19.338c10.66 0 19.336-8.676 19.336-19.338s-8.676-19.338-19.336-19.338z" fill="#4c241d"/></g><g><circle cx="228.196" cy="178.091" fill="#e5efef" r="9.101"/><path d="m228.195 191.191c-7.223 0-13.102-5.877-13.102-13.1 0-7.225 5.879-13.102 13.102-13.102s13.102 5.877 13.102 13.102c0 7.223-5.879 13.1-13.102 13.1zm0-18.201c-2.812 0-5.102 2.289-5.102 5.102s2.289 5.1 5.102 5.1 5.102-2.287 5.102-5.1-2.289-5.102-5.102-5.102z" fill="#4c241d"/></g></g></svg>