<svg id="_Layer_" data-name="&lt;Layer&gt;" xmlns="http://www.w3.org/2000/svg" width="2481.49" height="1511.13" viewBox="0 0 2481.49 1511.13"><defs><style>.cls-1{fill:#ebf3fa;}.cls-2{fill:#798ee8;}.cls-3,.cls-34{fill:#aec3ff;}.cls-4{fill:#849def;}.cls-5,.cls-6{fill:#8c9df4;}.cls-14,.cls-34,.cls-6{opacity:0.5;}.cls-7{fill:#505aba;}.cls-8{fill:#ffa412;}.cls-9{fill:#ffb93e;}.cls-10{fill:#ffeddc;}.cls-11{fill:#db6a1d;}.cls-12{fill:#e5c1a1;}.cls-13{fill:#f9ddbf;}.cls-14,.cls-15{fill:#e2810e;}.cls-16{fill:#ffb27d;}.cls-17{fill:#739af0;}.cls-18{fill:#132642;}.cls-19{fill:#2a4e96;}.cls-20{fill:#233862;}.cls-21{fill:#6385db;}.cls-22{fill:#ed985f;}.cls-23{fill:#2c3a64;}.cls-24{fill:#f99746;}.cls-25{fill:#ed7d2b;}.cls-26{fill:#2b478b;}.cls-27{fill:#1a2d4c;}.cls-28{fill:#ed975d;}.cls-29{fill:#a9453d;}.cls-30{fill:#4662bc;}.cls-31{fill:#6980e2;}.cls-32{fill:#f78248;}.cls-33{fill:#dfebfd;}</style></defs><title>login</title><path class="cls-1" d="M2369.16,1548c-134.2,0-1952.54,2.91-2031.67-.67,0,0-138.42,1.79-177.78,0-.74-1.75-296.32-597.87,284.72-836.41C653.79,625,433,489.32,578.32,340.72c167-170.77,349.31,18.14,535-59.3,32.82-13.67,65.75-35.67,98.71-69.43a366.5,366.5,0,0,1,60.66-49.93c3.34-2.2,6.71-4.36,10.12-6.45a405.45,405.45,0,0,1,40.47-21.78q14-6.56,28.59-12.13h0a470.81,470.81,0,0,1,47.38-15.29,541.23,541.23,0,0,1,70.65-13.74q15.77-2,31.77-3.21C1709.23,74,1860.62,127.85,1986,250.26c71.73,70.06,132.48,198.37,89.76,404.52-27.12,130.85,210.34,198.3,292.09,329.58C2575.65,1318.14,2371.05,1543.67,2369.16,1548Z" transform="translate(-33.6 -40.27)"/><path class="cls-2" d="M1248,935.08l-48.33,574.62s-5.06,34.84,20.85,34.9c42.6.1,212,0,212,0s-32.06-7.25-31.67-23.57c.46-19.23,56.48-591.38,56.48-591.38Z" transform="translate(-33.6 -40.27)"/><path class="cls-3" d="M1448.5,1534.15c-8.37,0-172.41.31-213.9-.23-18.08-.22-21.25-16.07-21.4-26.33a51.85,51.85,0,0,1,.55-8.55l1.26-14.94,3.2-38.06,2.83-33.63,3.64-43.22,3.06-36.48,34.34-408.3L1471.44,919s-23.59,239.45-40.28,413.74c-1.87,19.42-3.64,38-5.28,55.42-.53,5.55-1,11-1.54,16.26-1.55,16.49-3,31.64-4.19,45q-1,10.57-1.79,19.59c-2.13,23.51-3.38,38.52-3.39,41.37a24.34,24.34,0,0,0,.4,4.65C1418.81,1533.32,1445.36,1534.15,1448.5,1534.15Z" transform="translate(-33.6 -40.27)"/><polygon class="cls-3" points="705.94 581.88 823.66 1054.72 839.78 1119.47 894.61 1339.71 1913.19 1339.71 1711.11 581.88 705.94 581.88"/><polygon class="cls-2" points="705.94 581.87 689.63 587.31 872.91 1356.16 894.61 1339.71 705.94 581.87"/><polygon class="cls-4" points="872.91 1356.16 1885.23 1356.16 1913.19 1339.71 894.61 1339.71 872.91 1356.16"/><rect class="cls-3" x="1262.01" y="1534.15" width="219.18" height="10.42" transform="translate(2709.6 3038.45) rotate(180)"/><polygon class="cls-5" points="1391.88 1356.15 1390.74 1364.12 1184.61 1405.76 1187.44 1372.13 1188.79 1356.15 1391.88 1356.15"/><path class="cls-6" d="M1448.5,1534.15c-8.37,0-172.41.31-213.9-.23-18.08-.22-21.25-16.07-21.4-26.33l205.16-38.6c-2.13,23.51-3.38,38.52-3.39,41.37a24.34,24.34,0,0,0,.4,4.65C1418.81,1533.32,1445.36,1534.15,1448.5,1534.15Z" transform="translate(-33.6 -40.27)"/><polygon class="cls-5" points="705.94 581.87 1711.11 581.87 1874.2 1190.93 857.57 1190.93 705.94 581.87"/><polygon class="cls-7" points="1826.79 1164.54 885.65 1164.54 852.02 1030.56 839 978.73 833.7 957.59 799.13 819.9 797.35 812.73 779.07 739.96 770.89 707.39 763.92 679.61 758.23 656.96 747.57 614.5 1675.15 614.5 1686.86 656.96 1693.1 679.61 1700.76 707.39 1709.73 739.96 1768.88 954.49 1768.88 954.5 1773.88 972.67 1776.22 981.11 1817.05 1129.22 1826.79 1164.54"/><path class="cls-8" d="M1399.82,1022.16a18.56,18.56,0,0,0-2.47-3.92h0a19.06,19.06,0,0,0-2.4-2.44l-3.62-3.67-1,.7c-18.55-9.07-56.84.55-95.58,25.84-46.81,30.56-76.87,72.65-68.2,95l-1.32,1,5.21,5.19c.24.26.5.52.77.77l.14.15,0,0a21.47,21.47,0,0,0,4.5,3.13l0,0h0c18.31,9.59,57,0,96.17-25.53C1379.83,1087.28,1410.14,1044.18,1399.82,1022.16Z" transform="translate(-33.6 -40.27)"/><path class="cls-9" d="M1289.22,1033.09c47.7-31.14,94.72-38.53,105-16.5s-20,65.12-67.68,96.25-94.71,38.53-105,16.5S1241.53,1064.23,1289.22,1033.09Z" transform="translate(-33.6 -40.27)"/><path class="cls-8" d="M1255,1132.64a38.14,38.14,0,0,1-10.49-1.33c-6-1.71-10.08-5-12.27-9.78-4.3-9.38-.32-23.3,11.22-39.21,11.26-15.53,28.46-31.29,48.43-44.36h0c30.66-20.08,61.84-29.78,79.44-24.71,6,1.72,10.08,5,12.27,9.79,4.3,9.37.31,23.3-11.22,39.2-11.27,15.54-28.47,31.29-48.43,44.37C1298.67,1123.14,1273.06,1132.64,1255,1132.64Zm106-117.2c-17.3,0-42.7,9.43-67.15,25.44-19.61,12.85-36.49,28.3-47.51,43.5-10.61,14.62-14.57,27.63-10.87,35.69,1.75,3.81,5.13,6.46,10,7.88a34.43,34.43,0,0,0,9.42,1.18c17.29,0,42.69-9.44,67.14-25.45,19.62-12.85,36.49-28.29,47.52-43.49,10.6-14.63,14.56-27.64,10.87-35.7-1.75-3.81-5.13-6.46-10.06-7.88A34.32,34.32,0,0,0,1360.93,1015.44Z" transform="translate(-33.6 -40.27)"/><path class="cls-8" d="M1288.68,1084.32a24.91,24.91,0,0,0,3.93-2.13,18.94,18.94,0,0,0,3.19-2.7,25.65,25.65,0,0,0,2.76-3.55,50.27,50.27,0,0,0,2.61-4.65q2.31-4.56,4.73-8.53a51.64,51.64,0,0,1,5.42-7.35,44.36,44.36,0,0,1,6.84-6.21,47.33,47.33,0,0,1,9-5.1,32.86,32.86,0,0,1,8-2.52,13.93,13.93,0,0,1,6.12.21,7.47,7.47,0,0,1,4,2.77,9.37,9.37,0,0,1,1.58,5.19l11.25-4.94-.58,6.06-11.41,5a25.84,25.84,0,0,1-3.15,7,37.84,37.84,0,0,1-5.48,6.72,51.46,51.46,0,0,1-7.62,6.08,63.78,63.78,0,0,1-9.58,5.17l1.06-10.94a32.28,32.28,0,0,0,9.62-6c2.2-2.17,3.41-4.3,3.61-6.39a4,4,0,0,0-.43-2.62,2.62,2.62,0,0,0-1.74-1.18,6.83,6.83,0,0,0-2.81.11,19.3,19.3,0,0,0-3.59,1.22,24,24,0,0,0-3.56,1.92,17.48,17.48,0,0,0-3,2.59,24.67,24.67,0,0,0-2.77,3.57q-1.32,2.05-2.81,4.88-2.4,4.58-4.85,8.53a52.72,52.72,0,0,1-5.47,7.35,44.62,44.62,0,0,1-6.87,6.23,46.66,46.66,0,0,1-9,5.07,33.08,33.08,0,0,1-8.2,2.57,13.46,13.46,0,0,1-6.07-.25,7,7,0,0,1-3.85-2.86,10.27,10.27,0,0,1-1.51-5.26l-10.46,4.59.59-6,10.41-4.57a30,30,0,0,1,2.63-7,34.83,34.83,0,0,1,5.06-7.2,47.51,47.51,0,0,1,7.84-6.93,60.54,60.54,0,0,1,11-6.12l-1.06,10.94a36.7,36.7,0,0,0-6.29,3.44,23.49,23.49,0,0,0-4.18,3.63,13.49,13.49,0,0,0-2.36,3.59,11.26,11.26,0,0,0-.9,3.31,5,5,0,0,0,.38,2.83,2.86,2.86,0,0,0,1.67,1.42,5.59,5.59,0,0,0,2.74.1A15.1,15.1,0,0,0,1288.68,1084.32Z" transform="translate(-33.6 -40.27)"/><path class="cls-8" d="M1733.48,1432.25a18.12,18.12,0,0,0-2.12-4h0a18,18,0,0,0-2.16-2.54l-3.26-3.84-1,.61c-17.38-10.18-55.33-3.62-94.85,18.14-47.77,26.31-80.08,65.05-73.28,87.44l-1.36.85,4.68,5.43c.23.27.46.54.7.8l.13.15,0,0a20.91,20.91,0,0,0,4.15,3.38l0,0h0c17.11,10.67,55.45,4.21,95.41-17.79C1709.28,1494.13,1741.9,1454.43,1733.48,1432.25Z" transform="translate(-33.6 -40.27)"/><path class="cls-9" d="M1625.11,1434.8c48.66-26.8,94.94-30.55,103.36-8.37s-24.2,61.87-72.86,88.67-94.94,30.55-103.37,8.38S1576.45,1461.6,1625.11,1434.8Z" transform="translate(-33.6 -40.27)"/><path class="cls-8" d="M1584.53,1529.13a37.7,37.7,0,0,1-10.12-2.06c-5.66-2.1-9.43-5.61-11.21-10.42-3.5-9.43,1.39-22.68,13.77-37.31,12.1-14.29,30-28.35,50.35-39.61h0c31.29-17.29,62.33-24.44,79.08-18.22,5.66,2.1,9.43,5.6,11.21,10.41,3.5,9.43-1.39,22.68-13.77,37.31-12.1,14.29-30,28.36-50.35,39.61C1627.72,1523.08,1602.11,1530.45,1584.53,1529.13Zm111.61-106.26c-16.82-1.26-42.22,6.06-67.17,19.85-20,11.06-37.56,24.85-49.39,38.83-11.38,13.44-16.19,25.81-13.18,33.92,1.42,3.83,4.52,6.66,9.2,8.4a33.42,33.42,0,0,0,9.07,1.83c16.82,1.27,42.22-6.06,67.17-19.84,20-11.06,37.56-24.85,49.4-38.83,11.38-13.45,16.18-25.81,13.17-33.92-1.42-3.84-4.51-6.66-9.2-8.4A32.88,32.88,0,0,0,1696.14,1422.87Z" transform="translate(-33.6 -40.27)"/><path class="cls-8" d="M1620.84,1484.59a25.33,25.33,0,0,0,4-1.78,18.58,18.58,0,0,0,3.29-2.4,24.6,24.6,0,0,0,2.94-3.25,46.39,46.39,0,0,0,2.89-4.33q2.57-4.27,5.22-7.95a50.34,50.34,0,0,1,5.81-6.75,42,42,0,0,1,7.11-5.55,45.93,45.93,0,0,1,9.12-4.29,32.29,32.29,0,0,1,8-1.87,13.51,13.51,0,0,1,5.94.66,7.23,7.23,0,0,1,3.68,3,9.2,9.2,0,0,1,1.16,5.17l11.31-4-1,5.85-11.46,4a25.22,25.22,0,0,1-3.58,6.61,36.32,36.32,0,0,1-5.82,6.14,50,50,0,0,1-7.85,5.36,63,63,0,0,1-9.7,4.33l1.83-10.57a31.28,31.28,0,0,0,9.79-5.15c2.31-1.94,3.63-3.93,4-5.95a4,4,0,0,0-.23-2.58,2.54,2.54,0,0,0-1.61-1.27,6.57,6.57,0,0,0-2.74-.1,18.53,18.53,0,0,0-3.58.92,23.75,23.75,0,0,0-3.6,1.61,16.88,16.88,0,0,0-3.15,2.3,23.88,23.88,0,0,0-3,3.27q-1.44,1.9-3.09,4.54-2.68,4.28-5.35,7.94a51.35,51.35,0,0,1-5.85,6.75,43.39,43.39,0,0,1-7.14,5.56,46,46,0,0,1-9.08,4.28,32.67,32.67,0,0,1-8.16,1.9,13.27,13.27,0,0,1-5.88-.69,6.85,6.85,0,0,1-3.54-3.06,10.1,10.1,0,0,1-1.08-5.24l-10.51,3.71,1-5.81,10.46-3.69a29.59,29.59,0,0,1,3.07-6.6,34.11,34.11,0,0,1,5.44-6.63,47.22,47.22,0,0,1,8.14-6.17,58.85,58.85,0,0,1,11.11-5.15l-1.83,10.57a35.87,35.87,0,0,0-6.38,2.88,23.53,23.53,0,0,0-4.33,3.22,13.28,13.28,0,0,0-2.56,3.33,10.84,10.84,0,0,0-1.11,3.15,4.88,4.88,0,0,0,.16,2.78,2.83,2.83,0,0,0,1.52,1.5,5.51,5.51,0,0,0,2.66.3A14.63,14.63,0,0,0,1620.84,1484.59Z" transform="translate(-33.6 -40.27)"/><path class="cls-8" d="M1373.64,1157.17a18.52,18.52,0,0,1,2.49-4h0a19.39,19.39,0,0,1,2.42-2.46l3.66-3.71,1,.71c18.73-9.16,57.39.55,96.5,26.09,47.27,30.86,77.62,73.36,68.87,95.94l1.33,1-5.26,5.24c-.25.27-.51.53-.77.78l-.15.15,0,0a21.49,21.49,0,0,1-4.54,3.16l0,0h0c-18.48,9.68-57.56,0-97.1-25.77C1393.82,1222.92,1363.22,1179.41,1373.64,1157.17Z" transform="translate(-33.6 -40.27)"/><path class="cls-9" d="M1485.31,1168.21c-48.16-31.44-95.64-38.9-106-16.67s20.18,65.75,68.34,97.19,95.63,38.9,106,16.66S1533.46,1199.64,1485.31,1168.21Z" transform="translate(-33.6 -40.27)"/><path class="cls-8" d="M1450.27,1242.44c-20.16-13.2-37.53-29.11-48.91-44.8-11.64-16.06-15.66-30.12-11.32-39.58,2.21-4.83,6.38-8.15,12.38-9.88,17.77-5.12,49.26,4.67,80.22,24.94h0c20.15,13.2,37.52,29.11,48.9,44.8,11.64,16.06,15.67,30.11,11.32,39.58-2.21,4.83-6.38,8.15-12.38,9.88a38.51,38.51,0,0,1-10.6,1.34C1501.62,1268.72,1475.77,1259.13,1450.27,1242.44Zm-46.87-90.87c-5,1.43-8.39,4.11-10.15,8-3.73,8.14.27,21.27,11,36,11.14,15.34,28.17,30.94,48,43.91,24.69,16.17,50.33,25.7,67.79,25.7a34.6,34.6,0,0,0,9.51-1.19c5-1.44,8.39-4.11,10.15-8,3.74-8.14-.26-21.27-11-36-11.13-15.35-28.17-30.94-48-43.91-24.68-16.17-50.33-25.7-67.79-25.7A34.6,34.6,0,0,0,1403.4,1151.57Z" transform="translate(-33.6 -40.27)"/><path class="cls-8" d="M1489.44,1221.07a5.66,5.66,0,0,0,2.76-.11,2.86,2.86,0,0,0,1.69-1.43,5,5,0,0,0,.39-2.85,11.23,11.23,0,0,0-.91-3.35,13.92,13.92,0,0,0-2.38-3.63,24.3,24.3,0,0,0-4.22-3.66,37.15,37.15,0,0,0-6.36-3.47l-1.07-11a60.48,60.48,0,0,1,11.07,6.18,48.92,48.92,0,0,1,7.92,7,35,35,0,0,1,5.1,7.28,30.72,30.72,0,0,1,2.66,7l10.52,4.62.59,6.08-10.57-4.64a10.4,10.4,0,0,1-1.52,5.32,7,7,0,0,1-3.89,2.88,13.66,13.66,0,0,1-6.12.26,33.21,33.21,0,0,1-8.28-2.6,47,47,0,0,1-9-5.12,45,45,0,0,1-6.94-6.29,53.72,53.72,0,0,1-5.52-7.42q-2.47-4-4.9-8.61c-1-1.91-1.94-3.55-2.84-4.93a25.81,25.81,0,0,0-2.79-3.6,17.36,17.36,0,0,0-3.07-2.62,23.61,23.61,0,0,0-3.6-1.94,18.67,18.67,0,0,0-3.62-1.23,6.8,6.8,0,0,0-2.84-.11,2.72,2.72,0,0,0-1.76,1.18,4.14,4.14,0,0,0-.43,2.65q.3,3.18,3.65,6.46a32.62,32.62,0,0,0,9.71,6.07l1.07,11a64.2,64.2,0,0,1-9.68-5.22,51.67,51.67,0,0,1-7.68-6.14,37.43,37.43,0,0,1-5.54-6.79,26.29,26.29,0,0,1-3.18-7.1l-11.52-5.06-.59-6.12,11.36,5a9.47,9.47,0,0,1,1.6-5.25,7.48,7.48,0,0,1,4-2.79,14.15,14.15,0,0,1,6.17-.21,33.24,33.24,0,0,1,8.13,2.55,47.64,47.64,0,0,1,9.09,5.14,44.34,44.34,0,0,1,6.91,6.28,51.39,51.39,0,0,1,5.47,7.41q2.44,4,4.77,8.62a49.79,49.79,0,0,0,2.64,4.69,26.22,26.22,0,0,0,2.79,3.59,18.36,18.36,0,0,0,3.21,2.72,25.49,25.49,0,0,0,4,2.15A16.15,16.15,0,0,0,1489.44,1221.07Z" transform="translate(-33.6 -40.27)"/><path class="cls-9" d="M1267.48,1525.66v13.67a4.65,4.65,0,0,1-1.08,2.94,6.78,6.78,0,0,1-4.09,2.25,8.05,8.05,0,0,1-1.11.08H1001.87c-3.14,0-5.76-1.95-6.22-4.48a4.36,4.36,0,0,1,0-.52c0-.09,0-.18,0-.27v-13.67c0-.09,0-.18,0-.27a4.36,4.36,0,0,1,0-.52c.46-2.53,3.08-4.48,6.22-4.48H1261.2a6.75,6.75,0,0,1,1.11.08,7.15,7.15,0,0,1,1.15.28,6.19,6.19,0,0,1,2.94,2A4.65,4.65,0,0,1,1267.48,1525.66Z" transform="translate(-33.6 -40.27)"/><path class="cls-8" d="M1140.13,1544.6H1001.19a5.57,5.57,0,0,1-5.39-3.9,5.47,5.47,0,0,1-.15-.58,4.36,4.36,0,0,1,0-.52c0-.09,0-.18,0-.27v-13.67c0-.09,0-.18,0-.27a4.36,4.36,0,0,1,0-.52,5.47,5.47,0,0,1,.15-.58,5.57,5.57,0,0,1,5.39-3.9h121.88A42.46,42.46,0,0,0,1140.13,1544.6Z" transform="translate(-33.6 -40.27)"/><rect class="cls-8" x="1199.38" y="1480.12" width="2.95" height="24.21"/><rect class="cls-8" x="1189.4" y="1480.12" width="2.95" height="24.21"/><rect class="cls-8" x="1177.43" y="1480.12" width="2.95" height="24.21"/><rect class="cls-8" x="1159.09" y="1480.12" width="2.95" height="24.21"/><rect class="cls-8" x="1139.7" y="1480.12" width="2.95" height="24.21"/><rect class="cls-8" x="1109.97" y="1480.12" width="2.95" height="24.21"/><rect class="cls-8" x="1082.13" y="1480.12" width="2.95" height="24.21"/><rect class="cls-8" x="1057.28" y="1480.12" width="2.95" height="24.21"/><rect class="cls-8" x="1208.87" y="1480.12" width="2.95" height="24.21"/><rect class="cls-8" x="1215.15" y="1480.12" width="2.95" height="24.21"/><rect class="cls-8" x="1221.21" y="1480.12" width="2.95" height="24.21"/><path class="cls-8" d="M1262.31,1520.47v24a8,8,0,0,1-1.1.08h-1.85v-24.21h1.85A8,8,0,0,1,1262.31,1520.47Z" transform="translate(-33.6 -40.27)"/><path class="cls-8" d="M1266.41,1522.72v19.55a6.2,6.2,0,0,1-3,2v-23.5A6.36,6.36,0,0,1,1266.41,1522.72Z" transform="translate(-33.6 -40.27)"/><path class="cls-9" d="M1239.75,1501.45v13.67a4.75,4.75,0,0,1-1.07,3,8.53,8.53,0,0,1-.59.62,6.52,6.52,0,0,1-2.36,1.34,5.36,5.36,0,0,1-1.15.27,6.71,6.71,0,0,1-1.1.09H974.13c-3.12,0-5.74-2-6.2-4.49a4.43,4.43,0,0,1-.06-.51,2.44,2.44,0,0,1,0-.27v-13.67a2.35,2.35,0,0,1,0-.27,4.35,4.35,0,0,1,.06-.52c.46-2.52,3.08-4.48,6.2-4.48h259.35a4,4,0,0,1,.49,0l.18,0h0a1,1,0,0,1,.24,0l.16,0a6,6,0,0,1,1.15.26c.22.08.43.16.63.25h0l.41.19.22.13a1.07,1.07,0,0,1,.21.13,4.74,4.74,0,0,1,.77.56c.08.06.14.14.22.2l.12.12.07.08.06,0a2,2,0,0,1,.23.27A4.7,4.7,0,0,1,1239.75,1501.45Z" transform="translate(-33.6 -40.27)"/><path class="cls-8" d="M1112.4,1520.39H973.46a5.55,5.55,0,0,1-5.38-3.91,5.47,5.47,0,0,1-.15-.58,4.43,4.43,0,0,1-.06-.51,2.44,2.44,0,0,1,0-.27v-13.67a2.35,2.35,0,0,1,0-.27,4.35,4.35,0,0,1,.06-.52q.06-.29.15-.57a5.55,5.55,0,0,1,5.38-3.91h121.88c.05.2.11.39.17.6A42.3,42.3,0,0,0,1112.4,1520.39Z" transform="translate(-33.6 -40.27)"/><rect class="cls-8" x="1171.65" y="1455.9" width="2.95" height="24.21"/><rect class="cls-8" x="1161.67" y="1455.9" width="2.95" height="24.21"/><rect class="cls-8" x="1149.71" y="1455.9" width="2.95" height="24.21"/><rect class="cls-8" x="1131.37" y="1455.9" width="2.95" height="24.21"/><rect class="cls-8" x="1111.97" y="1455.9" width="2.95" height="24.21"/><rect class="cls-8" x="1082.24" y="1455.9" width="2.95" height="24.21"/><rect class="cls-8" x="1054.41" y="1455.9" width="2.95" height="24.21"/><rect class="cls-8" x="1029.55" y="1455.9" width="2.95" height="24.21"/><rect class="cls-8" x="1181.15" y="1455.9" width="2.95" height="24.21"/><rect class="cls-8" x="1187.42" y="1455.9" width="2.95" height="24.21"/><rect class="cls-8" x="1193.48" y="1455.9" width="2.95" height="24.21"/><path class="cls-8" d="M1234.58,1496.26v24a6.62,6.62,0,0,1-1.1.09h-1.84v-24.21h1.84A7.91,7.91,0,0,1,1234.58,1496.26Z" transform="translate(-33.6 -40.27)"/><path class="cls-8" d="M1238.68,1498.51v19.55a6.22,6.22,0,0,1-3,2v-23.5A6.24,6.24,0,0,1,1238.68,1498.51Z" transform="translate(-33.6 -40.27)"/><path class="cls-9" d="M1253.15,1477.83v13.68a4.65,4.65,0,0,1-1.08,2.94,6.21,6.21,0,0,1-2.94,2,8.05,8.05,0,0,1-1.15.28,10,10,0,0,1-1.1.08H987.53a7.25,7.25,0,0,1-2.89-.6,5.47,5.47,0,0,1-3.3-3.83,2,2,0,0,1-.05-.34,1.64,1.64,0,0,1,0-.23,2.44,2.44,0,0,1,0-.27v-13.68a2.26,2.26,0,0,1,0-.26,4.18,4.18,0,0,1,.06-.51c.46-2.54,3.08-4.49,6.2-4.49h259.35a6.71,6.71,0,0,1,1.1.08,6.9,6.9,0,0,1,1.15.27,6.21,6.21,0,0,1,2.94,2A4.69,4.69,0,0,1,1253.15,1477.83Z" transform="translate(-33.6 -40.27)"/><path class="cls-8" d="M1125.8,1496.78H986.86a5.79,5.79,0,0,1-2.57-.6,5.32,5.32,0,0,1-2.95-3.83,2,2,0,0,1-.05-.34,1.64,1.64,0,0,1,0-.23,2.44,2.44,0,0,1,0-.27v-13.68a2.26,2.26,0,0,1,0-.26,4.18,4.18,0,0,1,.06-.51,3.65,3.65,0,0,1,.14-.57,5.55,5.55,0,0,1,5.39-3.92h121.88a42.59,42.59,0,0,0,16.21,23.61Z" transform="translate(-33.6 -40.27)"/><rect class="cls-8" x="1185.05" y="1432.29" width="2.95" height="24.21"/><rect class="cls-8" x="1175.07" y="1432.29" width="2.95" height="24.21"/><rect class="cls-8" x="1163.11" y="1432.29" width="2.95" height="24.21"/><rect class="cls-8" x="1144.77" y="1432.29" width="2.95" height="24.21"/><rect class="cls-8" x="1125.37" y="1432.29" width="2.95" height="24.21"/><rect class="cls-8" x="1095.64" y="1432.29" width="2.95" height="24.21"/><rect class="cls-8" x="1067.81" y="1432.29" width="2.95" height="24.21"/><rect class="cls-8" x="1042.95" y="1432.29" width="2.95" height="24.21"/><rect class="cls-8" x="1194.54" y="1432.29" width="2.95" height="24.21"/><rect class="cls-8" x="1200.82" y="1432.29" width="2.95" height="24.21"/><rect class="cls-8" x="1206.88" y="1432.29" width="2.95" height="24.21"/><path class="cls-8" d="M1248,1472.65v24a6.71,6.71,0,0,1-1.1.09H1245v-24.22h1.84A6.71,6.71,0,0,1,1248,1472.65Z" transform="translate(-33.6 -40.27)"/><path class="cls-8" d="M1252.08,1474.89v19.56a6.29,6.29,0,0,1-2.95,2v-23.5A6.29,6.29,0,0,1,1252.08,1474.89Z" transform="translate(-33.6 -40.27)"/><path class="cls-9" d="M1259.36,1453.63v13.66a4.67,4.67,0,0,1-1.07,3c-.09.11-.19.21-.29.32a5.89,5.89,0,0,1-1.79,1.3,7.36,7.36,0,0,1-.86.35,7.67,7.67,0,0,1-1.15.27c-.18,0-.36,0-.55.06a5.25,5.25,0,0,1-.56,0H993.75c-3.14,0-5.75-2-6.22-4.49,0-.17,0-.34,0-.51v-14.22c.16-2.57,2.53-4.66,5.52-5,.25,0,.5,0,.75,0h259.34a5.25,5.25,0,0,1,.56,0,4.87,4.87,0,0,1,.55.06,7.67,7.67,0,0,1,1.15.27,6.36,6.36,0,0,1,2.94,2A4.65,4.65,0,0,1,1259.36,1453.63Z" transform="translate(-33.6 -40.27)"/><path class="cls-8" d="M1132,1472.57H993.08a5.56,5.56,0,0,1-5.39-3.91,3.83,3.83,0,0,1-.16-.58c0-.17,0-.34,0-.51v-14.22a5.45,5.45,0,0,1,4.93-5c.22,0,.44,0,.67,0H1115v0A42.5,42.5,0,0,0,1132,1472.57Z" transform="translate(-33.6 -40.27)"/><rect class="cls-8" x="1191.26" y="1408.08" width="2.95" height="24.21"/><rect class="cls-8" x="1181.28" y="1408.08" width="2.95" height="24.21"/><rect class="cls-8" x="1169.32" y="1408.08" width="2.95" height="24.21"/><rect class="cls-8" x="1150.98" y="1408.08" width="2.95" height="24.21"/><rect class="cls-8" x="1131.59" y="1408.08" width="2.95" height="24.21"/><rect class="cls-8" x="1101.85" y="1408.08" width="2.95" height="24.21"/><rect class="cls-8" x="1074.02" y="1408.08" width="2.95" height="24.21"/><rect class="cls-8" x="1049.16" y="1408.08" width="2.95" height="24.21"/><rect class="cls-8" x="1200.76" y="1408.08" width="2.95" height="24.21"/><rect class="cls-8" x="1207.03" y="1408.08" width="2.95" height="24.21"/><rect class="cls-8" x="1213.09" y="1408.08" width="2.95" height="24.21"/><path class="cls-8" d="M1254.2,1448.44v24a8.17,8.17,0,0,1-1.11.08h-1.84v-24.21h1.84A6.83,6.83,0,0,1,1254.2,1448.44Z" transform="translate(-33.6 -40.27)"/><path class="cls-8" d="M1258.29,1450.68v19.56a6.29,6.29,0,0,1-3,2v-23.5A6.22,6.22,0,0,1,1258.29,1450.68Z" transform="translate(-33.6 -40.27)"/><path class="cls-9" d="M1240.29,1429.45v13.67a4.58,4.58,0,0,1-1.07,2.94,6.21,6.21,0,0,1-2.94,2,6.39,6.39,0,0,1-1.15.26,2.23,2.23,0,0,1-.36,0h0l-.19,0H974.69c-3.35,0-6.1-2.22-6.28-5v-14.21a1.5,1.5,0,0,1,0-.22,5.67,5.67,0,0,1,4.71-4.61l.18,0a7.67,7.67,0,0,1,1.37-.13H1234l.56,0,.24,0h0l.29,0a6.39,6.39,0,0,1,1.15.26,6.21,6.21,0,0,1,2.94,2A4.58,4.58,0,0,1,1240.29,1429.45Z" transform="translate(-33.6 -40.27)"/><path class="cls-8" d="M1113,1448.39H974a5.49,5.49,0,0,1-5.6-5v-14.21a1.5,1.5,0,0,1,0-.22,5.4,5.4,0,0,1,4.35-4.64,1,1,0,0,1,.24,0,5.36,5.36,0,0,1,1-.09h121.87a1,1,0,0,1,0,.18,42.46,42.46,0,0,0,17,24Z" transform="translate(-33.6 -40.27)"/><rect class="cls-8" x="1172.19" y="1383.91" width="2.95" height="24.21"/><rect class="cls-8" x="1162.22" y="1383.91" width="2.95" height="24.21"/><rect class="cls-8" x="1150.25" y="1383.91" width="2.95" height="24.21"/><rect class="cls-8" x="1131.91" y="1383.91" width="2.95" height="24.21"/><rect class="cls-8" x="1112.52" y="1383.91" width="2.95" height="24.21"/><rect class="cls-8" x="1082.79" y="1383.91" width="2.95" height="24.21"/><rect class="cls-8" x="1054.95" y="1383.91" width="2.95" height="24.21"/><rect class="cls-8" x="1030.09" y="1383.91" width="2.95" height="24.21"/><rect class="cls-8" x="1181.69" y="1383.91" width="2.95" height="24.21"/><rect class="cls-8" x="1187.96" y="1383.91" width="2.95" height="24.21"/><rect class="cls-8" x="1194.02" y="1383.91" width="2.95" height="24.21"/><path class="cls-8" d="M1235.13,1424.26v24a8.05,8.05,0,0,1-1.11.08h-1.84v-24.21H1234A8.05,8.05,0,0,1,1235.13,1424.26Z" transform="translate(-33.6 -40.27)"/><path class="cls-8" d="M1239.22,1426.51v19.55a6.12,6.12,0,0,1-2.94,2v-23.49A6.19,6.19,0,0,1,1239.22,1426.51Z" transform="translate(-33.6 -40.27)"/><path class="cls-9" d="M1239.75,1405.41v13.67a4.68,4.68,0,0,1-1.07,2.94c-.18.22-.38.43-.59.64a6.52,6.52,0,0,1-2.36,1.34,6.84,6.84,0,0,1-.89.23h0l-.24,0a8,8,0,0,1-1.1.09H974.13a7.49,7.49,0,0,1-.81,0l-.3,0a5.83,5.83,0,0,1-5.1-4.46c0-.15,0-.3,0-.45a2.72,2.72,0,0,1,0-.28v-13.67a2.44,2.44,0,0,1,0-.27,4.43,4.43,0,0,1,.06-.51c.46-2.53,3.08-4.49,6.2-4.49h259.35l.49,0h.21l.24,0a.41.41,0,0,1,.16,0,6.9,6.9,0,0,1,1.15.27,5.87,5.87,0,0,1,.63.24h0a6.39,6.39,0,0,1,2.08,1.46l.23.27A4.7,4.7,0,0,1,1239.75,1405.41Z" transform="translate(-33.6 -40.27)"/><path class="cls-8" d="M1112.4,1424.36H973.14l-.36,0a5.49,5.49,0,0,1-4.86-4.51c0-.15,0-.3,0-.45a2.72,2.72,0,0,1,0-.28v-13.67a2.44,2.44,0,0,1,0-.27,4.43,4.43,0,0,1,.06-.51,5.47,5.47,0,0,1,.15-.58,5.55,5.55,0,0,1,5.38-3.91h121.88c.05.2.11.4.17.6a42.37,42.37,0,0,0,16.64,23.44C1112.23,1424.24,1112.32,1424.29,1112.4,1424.36Z" transform="translate(-33.6 -40.27)"/><rect class="cls-8" x="1171.65" y="1359.87" width="2.95" height="24.21"/><rect class="cls-8" x="1161.67" y="1359.87" width="2.95" height="24.21"/><rect class="cls-8" x="1149.71" y="1359.87" width="2.95" height="24.21"/><rect class="cls-8" x="1131.37" y="1359.87" width="2.95" height="24.21"/><rect class="cls-8" x="1111.97" y="1359.87" width="2.95" height="24.21"/><rect class="cls-8" x="1082.24" y="1359.87" width="2.95" height="24.21"/><rect class="cls-8" x="1054.41" y="1359.87" width="2.95" height="24.21"/><rect class="cls-8" x="1029.55" y="1359.87" width="2.95" height="24.21"/><rect class="cls-8" x="1181.15" y="1359.87" width="2.95" height="24.21"/><rect class="cls-8" x="1187.42" y="1359.87" width="2.95" height="24.21"/><rect class="cls-8" x="1193.48" y="1359.87" width="2.95" height="24.21"/><path class="cls-8" d="M1234.58,1400.23v24a7.91,7.91,0,0,1-1.1.08h-1.84v-24.21h1.84A6.62,6.62,0,0,1,1234.58,1400.23Z" transform="translate(-33.6 -40.27)"/><path class="cls-8" d="M1238.68,1402.47V1422a6.29,6.29,0,0,1-3,2v-23.5A6.22,6.22,0,0,1,1238.68,1402.47Z" transform="translate(-33.6 -40.27)"/><path class="cls-9" d="M1253.15,1381.8v13.67a4.7,4.7,0,0,1-1.08,3,6.2,6.2,0,0,1-2.94,2,6,6,0,0,1-1.15.27,6.71,6.71,0,0,1-1.1.09H987.53a7.25,7.25,0,0,1-2.89-.6,5.44,5.44,0,0,1-3.3-3.82,2.15,2.15,0,0,1-.05-.34,1.94,1.94,0,0,1,0-.24,2.44,2.44,0,0,1,0-.27V1381.8a2.62,2.62,0,0,1,0-.28,4.43,4.43,0,0,1,.06-.51c.46-2.52,3.08-4.48,6.2-4.48h259.35a8,8,0,0,1,1.1.08,6.9,6.9,0,0,1,1.15.27,6.16,6.16,0,0,1,2.94,2A4.65,4.65,0,0,1,1253.15,1381.8Z" transform="translate(-33.6 -40.27)"/><path class="cls-8" d="M1125.8,1400.74H986.86a5.79,5.79,0,0,1-2.57-.6,5.29,5.29,0,0,1-2.95-3.82,2.15,2.15,0,0,1-.05-.34,1.94,1.94,0,0,1,0-.24,2.44,2.44,0,0,1,0-.27V1381.8a2.62,2.62,0,0,1,0-.28,4.43,4.43,0,0,1,.06-.51,3.82,3.82,0,0,1,.14-.56,5.55,5.55,0,0,1,5.39-3.92h121.88a42.52,42.52,0,0,0,16.21,23.61Z" transform="translate(-33.6 -40.27)"/><rect class="cls-8" x="1185.05" y="1336.25" width="2.95" height="24.21"/><rect class="cls-8" x="1175.07" y="1336.25" width="2.95" height="24.21"/><rect class="cls-8" x="1163.11" y="1336.25" width="2.95" height="24.21"/><rect class="cls-8" x="1144.77" y="1336.25" width="2.95" height="24.21"/><rect class="cls-8" x="1125.37" y="1336.25" width="2.95" height="24.21"/><rect class="cls-8" x="1095.64" y="1336.25" width="2.95" height="24.21"/><rect class="cls-8" x="1067.81" y="1336.25" width="2.95" height="24.21"/><rect class="cls-8" x="1042.95" y="1336.25" width="2.95" height="24.21"/><rect class="cls-8" x="1194.54" y="1336.25" width="2.95" height="24.21"/><rect class="cls-8" x="1200.82" y="1336.25" width="2.95" height="24.21"/><rect class="cls-8" x="1206.88" y="1336.25" width="2.95" height="24.21"/><path class="cls-8" d="M1248,1376.61v24.05a8,8,0,0,1-1.1.08H1245v-24.21h1.84A8,8,0,0,1,1248,1376.61Z" transform="translate(-33.6 -40.27)"/><path class="cls-8" d="M1252.08,1378.86v19.55a6.22,6.22,0,0,1-2.95,2v-23.5A6.24,6.24,0,0,1,1252.08,1378.86Z" transform="translate(-33.6 -40.27)"/><path class="cls-9" d="M1274.34,1357.58v13.68a4.63,4.63,0,0,1-1.07,2.93h0c-.09.11-.19.22-.29.32a5.88,5.88,0,0,1-1.38,1.09,9.12,9.12,0,0,1-.83.4h0l-.43.17a6.31,6.31,0,0,1-1.16.26,6.53,6.53,0,0,1-1.1.09H1008.73c-3.13,0-5.75-2-6.21-4.49a2.94,2.94,0,0,1,0-.51,2.44,2.44,0,0,1,0-.27v-13.68a2.26,2.26,0,0,1,0-.26c.15-2.56,2.52-4.66,5.52-5a6,6,0,0,1,.74,0h259.34a7.8,7.8,0,0,1,1.1.08,7.26,7.26,0,0,1,1.16.27,6.32,6.32,0,0,1,2.65,1.65c.1.1.2.21.29.32h0A4.63,4.63,0,0,1,1274.34,1357.58Z" transform="translate(-33.6 -40.27)"/><path class="cls-8" d="M1147,1376.53H1008.06a5.55,5.55,0,0,1-5.39-3.92,5.29,5.29,0,0,1-.15-.57,2.94,2.94,0,0,1,0-.51,2.44,2.44,0,0,1,0-.27v-13.68a2.26,2.26,0,0,1,0-.26,5.43,5.43,0,0,1,4.92-5,4.92,4.92,0,0,1,.67,0h121.87s0,0,0,0A42.4,42.4,0,0,0,1147,1376.53Z" transform="translate(-33.6 -40.27)"/><rect class="cls-8" x="1206.24" y="1312.04" width="2.95" height="24.21"/><rect class="cls-8" x="1196.26" y="1312.04" width="2.95" height="24.21"/><rect class="cls-8" x="1184.3" y="1312.04" width="2.95" height="24.21"/><rect class="cls-8" x="1165.96" y="1312.04" width="2.95" height="24.21"/><rect class="cls-8" x="1146.57" y="1312.04" width="2.95" height="24.21"/><rect class="cls-8" x="1116.84" y="1312.04" width="2.95" height="24.21"/><rect class="cls-8" x="1089" y="1312.04" width="2.95" height="24.21"/><rect class="cls-8" x="1064.14" y="1312.04" width="2.95" height="24.21"/><rect class="cls-8" x="1215.74" y="1312.04" width="2.95" height="24.21"/><rect class="cls-8" x="1222.01" y="1312.04" width="2.95" height="24.21"/><rect class="cls-8" x="1228.07" y="1312.04" width="2.95" height="24.21"/><path class="cls-8" d="M1269.18,1352.4v24a6.74,6.74,0,0,1-1.11.09h-1.84v-24.21h1.84A8.05,8.05,0,0,1,1269.18,1352.4Z" transform="translate(-33.6 -40.27)"/><path class="cls-8" d="M1273.27,1354.64v19.56a6.19,6.19,0,0,1-2.94,2v-23.5A6.26,6.26,0,0,1,1273.27,1354.64Z" transform="translate(-33.6 -40.27)"/><path class="cls-9" d="M1240.29,1333.42v13.66a4.61,4.61,0,0,1-1.07,3,6.19,6.19,0,0,1-2.94,2,7.4,7.4,0,0,1-1.15.27l-.36,0h0l-.24,0H974.69a6.6,6.6,0,0,1-5.34-2.51,4.62,4.62,0,0,1-.94-2.49v-14.22a5.57,5.57,0,0,1,4.45-4.76,6.85,6.85,0,0,1,1.83-.24h259.67l.16,0a6,6,0,0,1,.61.06,7.4,7.4,0,0,1,1.15.27,4.81,4.81,0,0,1,.53.2h0a6.19,6.19,0,0,1,1.81,1.14l0,0,.07.06a4.1,4.1,0,0,1,.49.53A4.59,4.59,0,0,1,1240.29,1333.42Z" transform="translate(-33.6 -40.27)"/><path class="cls-8" d="M1113,1352.36H974a5.71,5.71,0,0,1-4.68-2.39,5,5,0,0,1-.92-2.61v-14.22a5.4,5.4,0,0,1,4.47-4.88,5.22,5.22,0,0,1,1.13-.12h121.87c0,.19.11.38.17.56a42.27,42.27,0,0,0,16.84,23.62Z" transform="translate(-33.6 -40.27)"/><rect class="cls-8" x="1172.19" y="1287.87" width="2.95" height="24.21"/><rect class="cls-8" x="1162.22" y="1287.87" width="2.95" height="24.21"/><rect class="cls-8" x="1150.25" y="1287.87" width="2.95" height="24.21"/><rect class="cls-8" x="1131.91" y="1287.87" width="2.95" height="24.21"/><rect class="cls-8" x="1112.52" y="1287.87" width="2.95" height="24.21"/><rect class="cls-8" x="1082.79" y="1287.87" width="2.95" height="24.21"/><rect class="cls-8" x="1054.95" y="1287.87" width="2.95" height="24.21"/><rect class="cls-8" x="1030.09" y="1287.87" width="2.95" height="24.21"/><rect class="cls-8" x="1181.69" y="1287.87" width="2.95" height="24.21"/><rect class="cls-8" x="1187.96" y="1287.87" width="2.95" height="24.21"/><rect class="cls-8" x="1194.02" y="1287.87" width="2.95" height="24.21"/><path class="cls-8" d="M1235.13,1328.23v24a6.74,6.74,0,0,1-1.11.09h-1.84v-24.22H1234A6.74,6.74,0,0,1,1235.13,1328.23Z" transform="translate(-33.6 -40.27)"/><path class="cls-8" d="M1239.22,1330.47V1350a6.26,6.26,0,0,1-2.94,2v-23.5A6.26,6.26,0,0,1,1239.22,1330.47Z" transform="translate(-33.6 -40.27)"/><path class="cls-9" d="M1259.36,1309.76v13.67a4.69,4.69,0,0,1-1.07,3,6.29,6.29,0,0,1-3,2,7,7,0,0,1-1.14.27,8.17,8.17,0,0,1-1.11.08H993.75a7.1,7.1,0,0,1-2.8-.56,5.37,5.37,0,0,1-3.45-4.22c0-.07,0-.14,0-.22s0-.18,0-.27v-13.67c0-.09,0-.18,0-.27.16-2.57,2.53-4.66,5.53-5a6,6,0,0,1,.74,0h259.34a6.83,6.83,0,0,1,1.11.09,6.11,6.11,0,0,1,1.14.27,6.22,6.22,0,0,1,3,2A4.64,4.64,0,0,1,1259.36,1309.76Z" transform="translate(-33.6 -40.27)"/><path class="cls-8" d="M1132,1328.7H993.08a5.77,5.77,0,0,1-2.5-.56,5.28,5.28,0,0,1-3.08-4.22c0-.07,0-.14,0-.22s0-.18,0-.27v-13.67c0-.09,0-.18,0-.27a5.45,5.45,0,0,1,4.93-5,4.92,4.92,0,0,1,.67,0H1115a.06.06,0,0,1,0,0,42.43,42.43,0,0,0,16.26,23.61C1131.48,1328.33,1131.74,1328.52,1132,1328.7Z" transform="translate(-33.6 -40.27)"/><rect class="cls-8" x="1191.26" y="1264.22" width="2.95" height="24.21"/><rect class="cls-8" x="1181.28" y="1264.22" width="2.95" height="24.21"/><rect class="cls-8" x="1169.32" y="1264.22" width="2.95" height="24.21"/><rect class="cls-8" x="1150.98" y="1264.22" width="2.95" height="24.21"/><rect class="cls-8" x="1131.59" y="1264.22" width="2.95" height="24.21"/><rect class="cls-8" x="1101.85" y="1264.22" width="2.95" height="24.21"/><rect class="cls-8" x="1074.02" y="1264.22" width="2.95" height="24.21"/><rect class="cls-8" x="1049.16" y="1264.22" width="2.95" height="24.21"/><rect class="cls-8" x="1200.76" y="1264.22" width="2.95" height="24.21"/><rect class="cls-8" x="1207.03" y="1264.22" width="2.95" height="24.21"/><rect class="cls-8" x="1213.09" y="1264.22" width="2.95" height="24.21"/><path class="cls-8" d="M1254.2,1304.58v24a8.17,8.17,0,0,1-1.11.08h-1.84v-24.21h1.84A6.83,6.83,0,0,1,1254.2,1304.58Z" transform="translate(-33.6 -40.27)"/><path class="cls-8" d="M1258.29,1306.82v19.55a6.24,6.24,0,0,1-3,2v-23.5A6.22,6.22,0,0,1,1258.29,1306.82Z" transform="translate(-33.6 -40.27)"/><path class="cls-9" d="M1267.48,1285.59v13.67a4.7,4.7,0,0,1-1.07,2.94,6.82,6.82,0,0,1-4.1,2.25l-.36,0-.21,0H1001.86c-3.34,0-6.09-2.22-6.26-5a2.44,2.44,0,0,1,0-.27v-13.67a2.44,2.44,0,0,1,0-.27c.17-2.78,2.92-5,6.26-5h259.35a8,8,0,0,1,1.1.08,7.14,7.14,0,0,1,1.15.27,6.36,6.36,0,0,1,3,2A4.7,4.7,0,0,1,1267.48,1285.59Z" transform="translate(-33.6 -40.27)"/><path class="cls-8" d="M1140.13,1304.53H1001.19a5.48,5.48,0,0,1-5.59-5,2.44,2.44,0,0,1,0-.27v-13.67a2.44,2.44,0,0,1,0-.27,5.48,5.48,0,0,1,5.59-5h121.88a42.36,42.36,0,0,0,17,24.17Z" transform="translate(-33.6 -40.27)"/><rect class="cls-8" x="1199.38" y="1240.04" width="2.95" height="24.21"/><rect class="cls-8" x="1189.4" y="1240.04" width="2.95" height="24.21"/><rect class="cls-8" x="1177.43" y="1240.04" width="2.95" height="24.21"/><rect class="cls-8" x="1159.09" y="1240.04" width="2.95" height="24.21"/><rect class="cls-8" x="1139.7" y="1240.04" width="2.95" height="24.21"/><rect class="cls-8" x="1109.97" y="1240.04" width="2.95" height="24.21"/><rect class="cls-8" x="1082.13" y="1240.04" width="2.95" height="24.21"/><rect class="cls-8" x="1057.28" y="1240.04" width="2.95" height="24.21"/><rect class="cls-8" x="1208.87" y="1240.04" width="2.95" height="24.21"/><rect class="cls-8" x="1215.15" y="1240.04" width="2.95" height="24.21"/><rect class="cls-8" x="1221.21" y="1240.04" width="2.95" height="24.21"/><path class="cls-8" d="M1262.31,1280.4v24a8,8,0,0,1-1.1.08h-1.85v-24.21h1.85A8,8,0,0,1,1262.31,1280.4Z" transform="translate(-33.6 -40.27)"/><path class="cls-8" d="M1266.41,1282.65v19.55a6.27,6.27,0,0,1-3,2v-23.5A6.29,6.29,0,0,1,1266.41,1282.65Z" transform="translate(-33.6 -40.27)"/><path class="cls-10" d="M1185.27,1142.35s-13.62,19.18-26.1,19.44-31.49-8.89-31.49-8.89-11.47-25.55-3.69-35.55a16.7,16.7,0,0,1,16,2.62,24.34,24.34,0,0,1,4.22,4,13.47,13.47,0,0,0,6.56,4.44c8.91,2.71,19.49-3.67,23.44,2.49a42,42,0,0,0,6.89,8.15A32.15,32.15,0,0,0,1185.27,1142.35Z" transform="translate(-33.6 -40.27)"/><path class="cls-10" d="M1007.69,1280.67s48.15-116.66,134.81-118.88c0,0,80,8.89,84.44,118.88Z" transform="translate(-33.6 -40.27)"/><path class="cls-11" d="M1118.76,1165.35s34.73,7.73,45.45,3.19c0,0,1.62-14.53-13-12.49-10,1.4-16.53-3.42-20.37-5.37C1125.41,1147.92,1117.32,1159.28,1118.76,1165.35Z" transform="translate(-33.6 -40.27)"/><path class="cls-12" d="M1149,1143.46c-2.22,1.67-9-23.49-9-23.49a24.34,24.34,0,0,1,4.22,4,13.47,13.47,0,0,0,6.56,4.44C1150.74,1129.19,1151.14,1141.84,1149,1143.46Z" transform="translate(-33.6 -40.27)"/><path class="cls-12" d="M1181.05,1139.1c-.49.29-16.55,9.91-18.73,9.91s11.84-18.06,11.84-18.06A42,42,0,0,0,1181.05,1139.1Z" transform="translate(-33.6 -40.27)"/><path class="cls-13" d="M1054.73,1248.08c-.89-.76,34.07-51.47,43.7-51.85s31.26,11.11,46.92,12.6,30.85-3,33.81,6.29,11.12,42.09,6.11,47.34S1074,1264.51,1054.73,1248.08Z" transform="translate(-33.6 -40.27)"/><path class="cls-14" d="M1087.65,1424.18a1.09,1.09,0,0,0,0,.18,116.48,116.48,0,0,1-3.89,24v0c-.31,1.14-.63,2.27-1,3.4a118.5,118.5,0,0,1-8.55,20.78,120.63,120.63,0,0,1-16.29,23.61l-.53.6a124.79,124.79,0,0,1-28.49,23.61q-3.45,2.1-7.08,4c-1.64.86-3.28,1.67-4.93,2.46s-3.25,1.7-4.82,2.66a67.06,67.06,0,0,1-16.48,6.78v-10.64c0-.09,0-.18,0-.27a4.36,4.36,0,0,1,0-.52,5.47,5.47,0,0,1,.15-.58,5.57,5.57,0,0,1,5.39-3.9H973.46a5.55,5.55,0,0,1-5.38-3.91,5.47,5.47,0,0,1-.15-.58,4.43,4.43,0,0,1-.06-.51,2.44,2.44,0,0,1,0-.27v-13.67a2.35,2.35,0,0,1,0-.27,4.35,4.35,0,0,1,.06-.52q.06-.29.15-.57a5.55,5.55,0,0,1,5.38-3.91h10.83a5.32,5.32,0,0,1-2.95-3.83,2,2,0,0,1-.05-.34,1.64,1.64,0,0,1,0-.23,2.44,2.44,0,0,1,0-.27v-13.68a2.26,2.26,0,0,1,0-.26,4.18,4.18,0,0,1,.06-.51,3.65,3.65,0,0,1,.14-.57,5.55,5.55,0,0,1,5.39-3.92h6.22a5.56,5.56,0,0,1-5.39-3.91,3.83,3.83,0,0,1-.16-.58c0-.17,0-.34,0-.51v-14.22a5.45,5.45,0,0,1,4.93-5H974a5.49,5.49,0,0,1-5.6-5v-14.21a1.5,1.5,0,0,1,0-.22,5.4,5.4,0,0,1,4.35-4.64,5.49,5.49,0,0,1-4.86-4.51c0-.15,0-.3,0-.45a2.72,2.72,0,0,1,0-.28v-13.67a2.44,2.44,0,0,1,0-.27,4.43,4.43,0,0,1,.06-.51,5.47,5.47,0,0,1,.15-.58,5.55,5.55,0,0,1,5.38-3.91h10.83a5.29,5.29,0,0,1-2.95-3.82,2.15,2.15,0,0,1-.05-.34,1.94,1.94,0,0,1,0-.24,2.44,2.44,0,0,1,0-.27V1381.8a2.62,2.62,0,0,1,0-.28,4.43,4.43,0,0,1,.06-.51,3.82,3.82,0,0,1,.14-.56,5.55,5.55,0,0,1,5.39-3.92h21.2a5.55,5.55,0,0,1-5.39-3.92,5.29,5.29,0,0,1-.15-.57,2.94,2.94,0,0,1,0-.51,2.44,2.44,0,0,1,0-.27v-13.68a2.26,2.26,0,0,1,0-.26,5.43,5.43,0,0,1,4.92-5H974a5.71,5.71,0,0,1-4.68-2.39l0-.12,3.51-21.47,0-.12,5-30.64a135,135,0,0,1,17.18,3.46l1,.27.06,0q4.92,1.38,9.72,3.12l.08,0a128.39,128.39,0,0,1,40.27,23.61l.62.56a121.16,121.16,0,0,1,16.89,18.19q1.52,2,2.94,4.06c.31.45.63.91.93,1.37a.05.05,0,0,1,0,0q2.29,3.39,4.36,7a118.54,118.54,0,0,1,8.21,17.21,115.63,115.63,0,0,1,6.29,23.61c0,.2.06.4.09.6A115.32,115.32,0,0,1,1087.65,1424.18Z" transform="translate(-33.6 -40.27)"/><circle class="cls-15" cx="931.48" cy="1411.68" r="127.56" transform="translate(-758.99 1031.85) rotate(-45)"/><path class="cls-9" d="M988.11,1526c-1.57,1-3.17,1.88-4.8,2.78l-1.65.89c-1.25.67-2.51,1.32-3.78,1.94a127.56,127.56,0,0,1-117.73-226.26c1.63-.9,3.29-1.77,4.94-2.58s3.23-1.57,4.86-2.29a127.23,127.23,0,0,1,38.29-10.3A127.59,127.59,0,0,1,988.11,1526Z" transform="translate(-33.6 -40.27)"/><path class="cls-8" d="M922.62,1532.73a114.39,114.39,0,1,1,55-14.26A114.65,114.65,0,0,1,922.62,1532.73Zm-.35-225.55a111.2,111.2,0,1,0,97.59,57.51A110.52,110.52,0,0,0,922.27,1307.18Z" transform="translate(-33.6 -40.27)"/><path class="cls-8" d="M978.67,1429.48c-.25-.63-.52-1.24-.79-1.83a33.49,33.49,0,0,0-7.73-11.06,34.82,34.82,0,0,0-12.19-7.17,58.1,58.1,0,0,0-15.47-2.9q-8.54-.52-18.59-.24a90,90,0,0,1-10.61-.22,26.79,26.79,0,0,1-7.47-1.63,13.08,13.08,0,0,1-5-3.38,18.06,18.06,0,0,1-3.17-5.23,19.43,19.43,0,0,1-1.44-6.13,13.25,13.25,0,0,1,.91-5.77,14.14,14.14,0,0,1,3.56-5,20.91,20.91,0,0,1,6.5-4q7.47-3,13.94.14t10.53,13.18l26-10.55a48.59,48.59,0,0,0-8.51-14.11A36.46,36.46,0,0,0,923.67,1351a47.94,47.94,0,0,0-15.69,1.6l-7.36-18.13-14.38,5.84,7.25,17.88a53.57,53.57,0,0,0-13.2,9.4,40.27,40.27,0,0,0-8.33,11.6,32.36,32.36,0,0,0-3.06,13.11,38.36,38.36,0,0,0,11.31,26.93,33.94,33.94,0,0,0,12.16,7.13,58.17,58.17,0,0,0,15.49,2.81,183.93,183.93,0,0,0,18.63,0,68.66,68.66,0,0,1,10.14.07,26.38,26.38,0,0,1,7.43,1.65,14.19,14.19,0,0,1,5.2,3.53,19.43,19.43,0,0,1,3.5,5.78,16,16,0,0,1,1.24,6.16,13.26,13.26,0,0,1-1.39,5.87,16.48,16.48,0,0,1-4.13,5.18,25,25,0,0,1-7,4.1,30.52,30.52,0,0,1-7.63,2,17.48,17.48,0,0,1-7.7-.77,18,18,0,0,1-7-4.55,27.62,27.62,0,0,1-5.69-9.21l-26,10.55c2.71,6.67,6.12,12,10.22,15.88a36.77,36.77,0,0,0,13.46,8.4,41.15,41.15,0,0,0,15.3,2.21,64.92,64.92,0,0,0,15.76-2.61l6.71,16.54,14.3-5.8-6.75-16.62a58.05,58.05,0,0,0,13.34-9.31,39.58,39.58,0,0,0,8-10.52c.16-.3.31-.61.46-.91a31.89,31.89,0,0,0,3.13-13A35,35,0,0,0,978.67,1429.48Z" transform="translate(-33.6 -40.27)"/><path class="cls-16" d="M499.65,950.64s-2.16-21.46,9.06-20.73,14.2,5.89,12.95,10-12.17,17.78-12.17,17.78Z" transform="translate(-33.6 -40.27)"/><path class="cls-17" d="M324.72,993.66s12.43,14.6,39.16,31.45c2.53,1.6,5.17,3.22,8,4.84a295.89,295.89,0,0,0,36.61,18c1.55.64,3.37,1.34,5.41,2.07,16,5.79,45.48,14,63.74,14.72,1.59.06,3.1.06,4.5,0,27.8-1.12,31.18-109,31.18-109s-3.09-10.79-17.37-8.07c0,0-21.69,60.92-29.46,65.89-6.9,4.41-46.58-55.73-80.73-59.94C362.74,950.81,324.72,993.66,324.72,993.66Z" transform="translate(-33.6 -40.27)"/><path class="cls-18" d="M399.39,1519s-2.05,23.74,3,26.22l64.24-.14s0-7.41-10.32-9.06-28.44-7.69-31.51-21.14S399.39,1519,399.39,1519Z" transform="translate(-33.6 -40.27)"/><path class="cls-19" d="M446.56,1232.31c-.32,15.53-1.07,31.54-2.53,45.94-6.94,68.3-9.37,150.83-10.37,166.74-1.73,27.63-7.19,71.75-7.19,71.75s-10.82,10.28-31.91,5.37c0,0-17.48-63.55-21.39-130.47-.06-1.1-.12-2.2-.17-3.31-.46-8.84-.93-19-1.41-29.87-3.22-73.07-6.71-181.61-6.71-181.61l80.61-18.93S447.35,1193.6,446.56,1232.31Z" transform="translate(-33.6 -40.27)"/><path class="cls-20" d="M446.56,1232.31c-20.43,35.25-59.37,100.19-75,126.15-3.22-73.07-6.71-181.61-6.71-181.61l80.61-18.93S447.35,1193.6,446.56,1232.31Z" transform="translate(-33.6 -40.27)"/><path class="cls-21" d="M413.87,1050c16,5.79,45.48,14,63.74,14.72-2.79-.52-23.12-4.55-30.64-13.63-8.08-9.76-21.68-36.27-32.5-25.45C409.38,1030.76,410.88,1040.83,413.87,1050Z" transform="translate(-33.6 -40.27)"/><path class="cls-16" d="M278.41,1220.82s-5,19.63-4.18,24,5.7,19.12,8.75,22.79,3.17-15.93,5.19-19,.93,7.31,2.55,8.16,4.33-7.87,5.54-11-4.33-13.86-4.84-21.57S278.41,1220.82,278.41,1220.82Z" transform="translate(-33.6 -40.27)"/><path class="cls-18" d="M239.36,1492s-11.43,10.43-9.2,17.85,12.55,12.35,13.94,21.42,7,14,12,14H280s3.69-6.38-5.23-8.3-12.29-12.57-11.73-22.45-.84-23.07-.84-23.07l-19-4.39Z" transform="translate(-33.6 -40.27)"/><path class="cls-19" d="M432.79,1178.5S357.33,1340,317.17,1410.81s-52.71,90.62-52.71,90.62-23-9.06-25.1-15.24c0,0,15.36-136.77,42.25-170.11,15.2-18.84,33.05-75.38,33.88-95.15S334,1154,334,1154Z" transform="translate(-33.6 -40.27)"/><path class="cls-17" d="M446.85,1170.1s-24.57,26.45-66.33,34.43c-18.32,3.51-55.52,6.9-64.75-6.15-2.16-3.06-2.18-7.59-1.7-14.68,1.24-18.4,5.87-54-15-125.49a121.47,121.47,0,0,1-4-19.11c-4.56-36.58-4.07-64.2,27.67-78.95,47.56-22.1,67.08-3.92,67.08-3.92s25.29,11.82,36.85,46.26C449.73,1071.39,446.85,1170.1,446.85,1170.1Z" transform="translate(-33.6 -40.27)"/><path class="cls-16" d="M351.24,954.08a35.3,35.3,0,0,0,35.52,2.32c1-.51.91-7.62.65-14.59s-.9-13.57-.9-13.57l-16.92-11.11-16.15-10.59C355.37,943,347.62,951.49,351.24,954.08Z" transform="translate(-33.6 -40.27)"/><path class="cls-22" d="M356.28,921.58s11,16.48,31.13,20.23c-.26-6.85-1-14.39-1-14.39l-16.83-10.29Z" transform="translate(-33.6 -40.27)"/><path class="cls-16" d="M401.66,924s-40.94,15.28-50.05-10-20.52-40.23,5.23-51,34.33-3,39.46,4.66S412.07,919.34,401.66,924Z" transform="translate(-33.6 -40.27)"/><path class="cls-23" d="M326.11,865.79c-.47-.36-1.42-.55-3.42-.26a8.14,8.14,0,0,1,3.48-1.77c-.13-2.82.37-8,4.86-10.07a6,6,0,0,0-2,4.83c4.36-6.69,15.26-13.09,48.19-16.93C420.58,836.52,411.9,866.66,407,871s-20.58-1.83-30.73,1S367.13,890.16,364,892.9s-2.43-1.15-7.59-2.36-4.05,6.73-1.68,11.55-2.8,12.84-2.8,12.84l-8-5.78c-8-5.78-20.08-34.52-18.35-41.49Z" transform="translate(-33.6 -40.27)"/><path class="cls-21" d="M314.07,1183.7c1.24-18.4,5.87-54-15-125.49a121.47,121.47,0,0,1-4-19.11h0c15.53-5.12,43.82,6.27,43.82,6.27S345.5,1139.89,314.07,1183.7Z" transform="translate(-33.6 -40.27)"/><path class="cls-17" d="M314.13,964.93s-19.11,7-31.3,57.54c-8.05,33.43-22.88,82.56-24.55,98s17,105.83,17,105.83,2.63,1.92,9.06.63a15,15,0,0,0,9-5.39s4.45-60.25,3.3-88.7c-.48-11.82,54.71-86.56,84.5-96.18C392.82,1032.88,314.13,964.93,314.13,964.93Z" transform="translate(-33.6 -40.27)"/><path class="cls-3" d="M581.41,899.44a635.78,635.78,0,0,0-119,10.16l-6.66-16.78-7.3-18.38s64-27.54,102.45-65.9Z" transform="translate(-33.6 -40.27)"/><path class="cls-24" d="M550.05,807.65l31.71,93.6h0a8.44,8.44,0,0,0,5.56-10.91l-27.91-78.65a7,7,0,0,0-9.36-4Z" transform="translate(-33.6 -40.27)"/><path class="cls-24" d="M519.78,969.11h0a11.47,11.47,0,0,1-13.45-9l-10.92-54.63a11.47,11.47,0,0,1,9-13.45h0a11.47,11.47,0,0,1,13.45,9l10.92,54.63A11.47,11.47,0,0,1,519.78,969.11Z" transform="translate(-33.6 -40.27)"/><path class="cls-17" d="M581.41,899.44a635.78,635.78,0,0,0-119,10.16l-6.66-16.78C515.67,880.6,581.41,899.44,581.41,899.44Z" transform="translate(-33.6 -40.27)"/><path class="cls-24" d="M480.06,906.23l-17.25,3c.26,0-16,3.17-21.38-11.28a12,12,0,0,1-1-3.11c-4.15-18,5.73-21.32,5.73-21.32l22.21-8.65,7.06,25V890Z" transform="translate(-33.6 -40.27)"/><path class="cls-25" d="M480.06,906.23l-17.25,3c.26,0-16,3.17-21.38-11.28,9.77-7.1,34-8.11,34-8.11V890Z" transform="translate(-33.6 -40.27)"/><path class="cls-16" d="M518.31,916.21s-8.44,3.36-6.9,7.08,12.29,8.83,14,5.9S523.62,913.07,518.31,916.21Z" transform="translate(-33.6 -40.27)"/><path class="cls-16" d="M499.49,947.26a118.53,118.53,0,0,1-1.7-12.6c-.1-4-.56-7.21.37-7.32s1.61.61,2,1.89,1.85,9.19,1.85,9.19l-.74,7.64Z" transform="translate(-33.6 -40.27)"/><path class="cls-3" d="M1362.53,427.47a70.76,70.76,0,1,1,70.76,70.76A70.76,70.76,0,0,1,1362.53,427.47Z" transform="translate(-33.6 -40.27)"/><path class="cls-17" d="M1410.58,399.08a22.71,22.71,0,1,1,22.71,22.71A22.71,22.71,0,0,1,1410.58,399.08Z" transform="translate(-33.6 -40.27)"/><path class="cls-17" d="M1433.29,421.79a39.74,39.74,0,0,0-39.74,39.74H1473A39.74,39.74,0,0,0,1433.29,421.79Z" transform="translate(-33.6 -40.27)"/><circle class="cls-3" cx="1439.95" cy="162.82" r="122.54" transform="translate(273.02 1025.62) rotate(-45)"/><path class="cls-17" d="M1400.62,113.65A39.33,39.33,0,1,1,1440,153,39.33,39.33,0,0,1,1400.62,113.65Z" transform="translate(-33.6 -40.27)"/><path class="cls-17" d="M1440,153a68.83,68.83,0,0,0-68.83,68.83h137.66A68.83,68.83,0,0,0,1440,153Z" transform="translate(-33.6 -40.27)"/><circle class="cls-3" cx="1586.76" cy="284.1" r="76.4"/><path class="cls-17" d="M1590.88,289.88a24.53,24.53,0,1,1,24.53,24.52A24.53,24.53,0,0,1,1590.88,289.88Z" transform="translate(-33.6 -40.27)"/><path class="cls-17" d="M1615.41,314.4a42.92,42.92,0,0,0-42.92,42.91h85.83A42.91,42.91,0,0,0,1615.41,314.4Z" transform="translate(-33.6 -40.27)"/><path class="cls-9" d="M1862.86,1528.37c1.48.91,3,1.77,4.5,2.62l1.55.83c1.18.63,2.36,1.24,3.55,1.83A119.76,119.76,0,0,0,1983,1321.24q-2.3-1.26-4.64-2.42t-4.56-2.15a119.52,119.52,0,0,0-35.94-9.66,119.77,119.77,0,0,0-75,221.36Z" transform="translate(-33.6 -40.27)"/><path class="cls-8" d="M1871.94,1522.68a108.88,108.88,0,1,1,52.36,13.51A109,109,0,0,1,1871.94,1522.68Zm-37.52-145a102.9,102.9,0,1,0,90.24-53.18A103,103,0,0,0,1834.42,1377.71Z" transform="translate(-33.6 -40.27)"/><path class="cls-8" d="M1869.09,1451.14a30.17,30.17,0,0,0,2.94,12.24l.43.86a36.79,36.79,0,0,0,7.56,9.87,54.54,54.54,0,0,0,12.53,8.75l-6.34,15.6,13.42,5.44,6.3-15.52a60.89,60.89,0,0,0,14.79,2.44,38.44,38.44,0,0,0,14.36-2.07,34.63,34.63,0,0,0,12.64-7.88,42.32,42.32,0,0,0,9.6-14.91l-24.4-9.91a25.93,25.93,0,0,1-5.33,8.66,16.75,16.75,0,0,1-6.6,4.26,16.35,16.35,0,0,1-7.22.72,27.78,27.78,0,0,1-7.16-1.86,23.3,23.3,0,0,1-6.55-3.84,15.47,15.47,0,0,1-3.87-4.87,12.33,12.33,0,0,1-1.31-5.5,15,15,0,0,1,1.17-5.79,17.94,17.94,0,0,1,3.28-5.42,13.34,13.34,0,0,1,4.89-3.32,24.83,24.83,0,0,1,7-1.54,65.67,65.67,0,0,1,9.51-.07,170.28,170.28,0,0,0,17.5,0,53.83,53.83,0,0,0,14.53-2.63,32,32,0,0,0,11.42-6.69,36,36,0,0,0,10.61-25.28,30.2,30.2,0,0,0-2.87-12.31,37.64,37.64,0,0,0-7.81-10.89,50.75,50.75,0,0,0-12.4-8.83l6.81-16.78-13.5-5.48-6.91,17a45.25,45.25,0,0,0-14.72-1.51,34.22,34.22,0,0,0-23.92,11.8,45.72,45.72,0,0,0-8,13.24l24.4,9.91q3.83-9.4,9.89-12.38t13.08-.12a19.41,19.41,0,0,1,6.11,3.71,13.47,13.47,0,0,1,3.34,4.73,12.41,12.41,0,0,1,.85,5.42,18.4,18.4,0,0,1-1.35,5.75,16.85,16.85,0,0,1-3,4.91,12.31,12.31,0,0,1-4.68,3.17,25.38,25.38,0,0,1-7,1.54,86.09,86.09,0,0,1-10,.2q-9.42-.27-17.44.22a55.09,55.09,0,0,0-14.53,2.73,32.53,32.53,0,0,0-11.43,6.73,31.46,31.46,0,0,0-7.27,10.38c-.25.56-.5,1.13-.74,1.72A33,33,0,0,0,1869.09,1451.14Z" transform="translate(-33.6 -40.27)"/><path class="cls-23" d="M2014.15,1004.54c-.37-1.47,31.89,14.58,33.53,16.4,15.13,16.78,10.81,38.68,2.15,38.89-5.55.14-4.47,9.37-4.47,9.37L1983.5,1043S1991,999.6,2014.15,1004.54Z" transform="translate(-33.6 -40.27)"/><path class="cls-23" d="M2006.53,1007.93s-2.21-24.1,24.71-24.1c0,0-8.16,2.22-12.38,6.64,0,0,17.17-10.08,35.86,5.41s7.08,54.34,12.76,61.72,27.81,8.85,25.11,32.7-70.23,53.72-65.9,73.46c0,0-26.46-38.91-7.54-56.66,0,0-9.22,8.69-10.16,19,0,0-2.5-20.17,10.33-26.61,11.35-5.71,20.65-26.58,19.67-30.31S2006.53,1007.93,2006.53,1007.93Z" transform="translate(-33.6 -40.27)"/><path class="cls-22" d="M2031,1121.29c4.15-20,30.07-26.19,42.33-9.86a21.61,21.61,0,0,1,4.27,10.5c2.8,22.69-33.49,115.12-38.68,123.49-9.46,15.24-65.16,67.47-65.16,67.47l-10.27-6.23s39.51-66.88,45.63-73.14C2016.17,1226.28,2023.09,1159.25,2031,1121.29Z" transform="translate(-33.6 -40.27)"/><path class="cls-22" d="M1977.64,1306.69s-15-9.83-20.66-9.2-22.08,5.36-22.28,7.77,18.29,3.92,19.53,5.24,13.8,9.7,18.35,7.07S1977.64,1306.69,1977.64,1306.69Z" transform="translate(-33.6 -40.27)"/><path class="cls-26" d="M2082.15,1529l13.39-2s45-35.76,51.71-102.5a120.25,120.25,0,0,0,.32-20.63,3.64,3.64,0,0,1,.46-2.28l0,0c1.44-2.21,5-7.74,9.88-15.61s13-22.4,22-38.85c16.23-29.61,35.12-65,41.6-76.31,20.65-36,10.7-60.13,10.7-60.13s-57.61-5.69-73.39-19.5l-5.69,8.76s-12.48,55.26-11.89,55.51c-.61,1.88-1.24,3.79-1.87,5.74-9.85,30.4-21.18,68.4-27.36,99.35-3.47,17.41-5.31,32.58-4.32,42.92.34,3.54-.07,9-1,15.72C2101.09,1458.8,2082.15,1529,2082.15,1529Z" transform="translate(-33.6 -40.27)"/><path class="cls-27" d="M2054.07,1545.88h55.85s1.34-8.51-1.58-15c-2.79-6.2-6.78-6.4-.51-16.11-3.55,3.65-14.95,5.17-23,4.08-1,1.6-6.37,12.36-9.68,14.74C2071.47,1536.25,2055.2,1535.32,2054.07,1545.88Z" transform="translate(-33.6 -40.27)"/><path class="cls-20" d="M2139.37,1261.16c4.88,26.91,16.4,71.68,40.54,85.93,16.23-29.61,35.12-65,41.6-76.31,20.65-36,10.7-60.13,10.7-60.13s-57.61-5.69-73.39-19.5l-5.69,8.76s-12.48,55.26-11.89,55.51C2140.63,1257.3,2140,1259.21,2139.37,1261.16Z" transform="translate(-33.6 -40.27)"/><path class="cls-25" d="M2037,1108.89s-7.9,8.21-11.5,18c0,0,12.59,36.17,42,40.7C2067.48,1167.64,2044.19,1108.88,2037,1108.89Z" transform="translate(-33.6 -40.27)"/><path class="cls-26" d="M2178.53,1214.81l-.19-10.45c20.81,2.63,71.76-24.86,71.76-24.86s21.77,14.48,24.75,55.83c1.45,20.18,10.65,105.54,11.67,131,.37,9.24.5,15.83.54,18.46v0a3.66,3.66,0,0,0,.88,2.15,119.39,119.39,0,0,1,11.28,17.28c31.75,59.08,15.15,139.36,15.15,139.36l-7.38-1.87s-26.85-83.22-44.4-119.22c-3-6.11-5.68-10.86-7.94-13.61-6.6-8-13.56-21.62-20.42-38-13-31-25.54-71.82-34.52-103.46C2199.08,1267.6,2178.53,1214.81,2178.53,1214.81Z" transform="translate(-33.6 -40.27)"/><path class="cls-16" d="M2056.76,1145.1c34-7.81,12.28-55.61,10.31-54.77-4.71-1-15.07-9.24-24.33-25.4l-1.25,1.08-20.89,18.32s4.83,7.13,8.89,14.11c3.18,5.46,5.88,10.84,5.45,12.69C2033.26,1112.45,2047.68,1147.18,2056.76,1145.1Z" transform="translate(-33.6 -40.27)"/><path class="cls-22" d="M2020.6,1084.34s4.83,7.11,8.89,14.1c13-8,13-24.09,12-32.42Z" transform="translate(-33.6 -40.27)"/><path class="cls-16" d="M2020,1093.51s31.54-17.55,20.31-37S2025.6,1021.63,2005,1032s-20.21,20.06-18,27.47S2011.53,1097.58,2020,1093.51Z" transform="translate(-33.6 -40.27)"/><path class="cls-23" d="M1981.62,1048.12c1.45-8.65,5.84-9.47,8.9-8.9,11.65-19.26,30.68-11.74,30.68-11.74a43,43,0,0,0,24.86,14.93s-3.66,6.81-18.74,11c-4.6,1.28-9.83.51-14.87-1.19a84.37,84.37,0,0,0,21.4,8.07c-19.87,1.81-38.78-16.35-40.74-18.3-.92,2.82-2.53,8.71-1.57,13,1.31,5.86,6.51,16.47,3.34,17.84C1994.88,1072.88,1979.46,1061.09,1981.62,1048.12Z" transform="translate(-33.6 -40.27)"/><path class="cls-27" d="M2270,1545.88h55.84s1.34-8.51-1.58-15c-2.79-6.2-7.17-9-6.12-16.51-3.55,3.65-9.33,7.74-17.41,6.66-1,1.6-6.38,10.18-9.69,12.56C2287.35,1536.25,2271.08,1535.32,2270,1545.88Z" transform="translate(-33.6 -40.27)"/><path class="cls-24" d="M2052.75,1183c7.19,2.5,17.28,3.88,27.59,5,14.69,1.6,29.85,2.7,37.79,5.86,2.9,1.16,4.83,2.59,5.44,4.41,3.44,10.35,18.61,26.32,18.61,26.32,97.24-4.42,107.92-45.1,107.92-45.1-65.43-76.07-176.2-98.09-176.2-98.09s-7.91-3.36-27.84,12.48c-13.3,10.57-11.54,14.63-11.54,14.63S2031.61,1175.62,2052.75,1183Z" transform="translate(-33.6 -40.27)"/><path class="cls-25" d="M2080.34,1188c14.69,1.6,29.85,2.7,37.79,5.86,3.24-48.49-19.64-85-19.64-85S2083.56,1169.65,2080.34,1188Z" transform="translate(-33.6 -40.27)"/><path class="cls-16" d="M2065.23,1099.51s36.8,3.63,39.75,27.54-35.28,121.32-40.76,130.14c-10,16-68.66,71.09-68.66,71.09l-10.82-6.56s41.63-70.48,48.08-77.08C2042.94,1234.29,2052.77,1107.79,2065.23,1099.51Z" transform="translate(-33.6 -40.27)"/><path class="cls-24" d="M2103.92,1141.44c-.1.55-34,11.06-55.76,0,0,0-4.67-50.29,21.36-47.56s41.43,10.93,42.08,23.38S2103.92,1141.44,2103.92,1141.44Z" transform="translate(-33.6 -40.27)"/><path class="cls-16" d="M1998.9,1321.29s-13.2-12.12-18.9-12.41-22.66,1.73-23.25,4.08,17.42,6.81,18.43,8.31,12.06,11.8,17,9.94S1998.9,1321.29,1998.9,1321.29Z" transform="translate(-33.6 -40.27)"/><path class="cls-20" d="M711.49,1548.59h0c4.39,0,9-3.18,10.31-7.16l264.94-814c1.3-4-1.21-7.23-5.61-7.25h0c-4.4,0-9,3.18-10.31,7.16l-265,814C704.57,1545.32,707.09,1548.57,711.49,1548.59Z" transform="translate(-33.6 -40.27)"/><path class="cls-20" d="M498,1547.35h0c4.4,0,9-3.19,10.32-7.17l264.94-814c1.3-4-1.22-7.24-5.61-7.26h0c-4.4,0-9,3.18-10.31,7.16l-264.95,814C491,1544.07,493.56,1547.32,498,1547.35Z" transform="translate(-33.6 -40.27)"/><path class="cls-20" d="M727.87,839.62l214.42,1.25c4.14,0,8.52-3,9.74-6.76h0c1.22-3.75-1.17-6.83-5.3-6.86L732.3,826c-4.13,0-8.51,3-9.73,6.77h0C721.35,836.51,723.74,839.59,727.87,839.62Z" transform="translate(-33.6 -40.27)"/><path class="cls-20" d="M681.61,981.74,896,983c4.14,0,8.52-3,9.74-6.76h0c1.22-3.75-1.17-6.83-5.3-6.86L686,968.12c-4.13,0-8.51,3-9.73,6.77h0C675.09,978.63,677.48,981.71,681.61,981.74Z" transform="translate(-33.6 -40.27)"/><path class="cls-20" d="M637.06,1118.61l214.42,1.26c4.14,0,8.52-3,9.73-6.77h0c1.22-3.74-1.16-6.82-5.3-6.85L641.49,1105c-4.13,0-8.51,3-9.73,6.76h0C630.54,1115.51,632.92,1118.59,637.06,1118.61Z" transform="translate(-33.6 -40.27)"/><path class="cls-20" d="M586.9,1272.71,801.32,1274c4.14,0,8.52-3,9.74-6.76h0c1.22-3.75-1.17-6.83-5.3-6.85l-214.43-1.26c-4.13,0-8.51,3-9.73,6.77h0C580.38,1269.6,582.77,1272.69,586.9,1272.71Z" transform="translate(-33.6 -40.27)"/><path class="cls-20" d="M534.4,1434l214.43,1.26c4.13,0,8.51-3,9.73-6.77h0c1.22-3.74-1.17-6.83-5.3-6.85l-214.42-1.25c-4.14,0-8.52,3-9.74,6.76h0C527.88,1430.89,530.27,1434,534.4,1434Z" transform="translate(-33.6 -40.27)"/><rect class="cls-20" y="1503.98" width="2481.49" height="7.15" rx="2.93"/><path class="cls-3" d="M1057.09,473.93A107.42,107.42,0,1,1,1186.79,553,107.43,107.43,0,0,1,1057.09,473.93Z" transform="translate(-33.6 -40.27)"/><path class="cls-17" d="M1117.83,414.86a34.47,34.47,0,1,1,41.63,25.39A34.47,34.47,0,0,1,1117.83,414.86Z" transform="translate(-33.6 -40.27)"/><path class="cls-17" d="M1159.46,440.25A60.34,60.34,0,0,0,1115,513.1l117.28-28.43A60.34,60.34,0,0,0,1159.46,440.25Z" transform="translate(-33.6 -40.27)"/><path class="cls-16" d="M733.46,567.32s-4,10.69-5,17.15c-.57,3.86.69,13.5-4.67,14.59-5.75,1.17-8.44-17.21-7.8-20.26.71-3.34,2.77-14.89,6.51-15.72S733.46,567.32,733.46,567.32Z" transform="translate(-33.6 -40.27)"/><path class="cls-16" d="M731.71,568.6s2.24,7.71,2.24,10.58,1.71,11.3,0,11.82c-2.24.68-6.09-9.64-6.09-9.64Z" transform="translate(-33.6 -40.27)"/><path class="cls-16" d="M1085.17,484.28c-6.06,3.78-4.3,1.52-12.73,7s-18.75,6.89-24.91,3l-3.76-.62-4.51-.76-1-13.61s2.77-.33,6.22-.84c1-.15,2.18-.33,3.29-.52,2.15-1.53,5.93-5.17,8.71-6.76l.9,3.85c5-1.85,11.46-3,23.34-.76a8.86,8.86,0,0,1,5.84,3.85C1087.75,480.05,1088.2,482.4,1085.17,484.28Z" transform="translate(-33.6 -40.27)"/><path class="cls-16" d="M831,363.86s19.5,23.14,44.33,13.46c0,0,5.35-12.92,5.42-22.45,0-1.17,0-2.31,0-3.39.13-10.72.5-16.74.5-16.74h0c-1.13-.47-38-15.59-37.93-14.33C843.94,349.41,831,363.86,831,363.86Z" transform="translate(-33.6 -40.27)"/><path class="cls-28" d="M847,327.31c3.55,6.59,15.73,19.47,33.76,24.17.13-10.72.5-16.74.5-16.74h0C880.22,334.46,846,325.37,847,327.31Z" transform="translate(-33.6 -40.27)"/><path class="cls-16" d="M889,333.62s-41.42,9.74-47.09-16.15-14.83-42.06,11.38-49.38,33.52,1.44,37.52,9.62S899.61,330.42,889,333.62Z" transform="translate(-33.6 -40.27)"/><path class="cls-29" d="M843.31,324.53c-.57.36-9.48,3.1-26.36-30.53-2.65-5.28-4.46-16.7,1.72-26.79s28.08-18,46.27-21.47,22.57,6.79,26.85,17.08c4.5,10.8,17.49,19.69,17.49,19.69-15.69,8.77-34.59-3.77-41.14-1.71s-8.86,12.38-9.35,15.69-1.24,6.05-9.48,3.1-3.72,11.67-2.4,14.46C846.91,314.05,848,321.5,843.31,324.53Z" transform="translate(-33.6 -40.27)"/><path class="cls-29" d="M735.83,968.41H710.74c-5.25,0-11.1-5.26-12.56-14.9s-12.27-14.91-14.61-22.8,9.65-19,9.65-19l2-2.58,2.08-2.68,19.87,4.67s.49,4.73.8,10.76a137.79,137.79,0,0,1,.08,13.79c-.59,10.52,3,21.85,12.29,23.9S735.83,968.41,735.83,968.41Z" transform="translate(-33.6 -40.27)"/><path class="cls-29" d="M898,969.11H843.1a5.82,5.82,0,0,1-1.41-.41c-4.44-2.22-3.05-19.21-2.51-24.46.1-1,.17-1.55.17-1.55s23.38-18.7,26.6-4.38c.1.45.22.89.34,1.32h0c4.06,13.39,22.44,13.63,32.92,15.32.25,0,.49.09.73.15C908,957.07,906.26,969.11,898,969.11Z" transform="translate(-33.6 -40.27)"/><path class="cls-24" d="M897.81,586.75s-3.55,44.3-7.72,97.55c-5.68,72.33-12.5,161.18-13.17,178-1.17,29.23-5.85,76-5.85,76s-11.1,11.11-33.31,6.43c0,0-19.8-66.75-25.45-137.36l-.27-3.49C806.78,732,798.6,580.61,798.6,580.61Z" transform="translate(-33.6 -40.27)"/><path class="cls-25" d="M897.81,586.75s-3.55,44.3-7.72,97.55L812.31,807.37l-.27-3.49C806.78,732,798.6,580.61,798.6,580.61Z" transform="translate(-33.6 -40.27)"/><path class="cls-24" d="M881.6,592s-64,160.43-106.08,235.83-55.24,96.43-55.24,96.43-24.1-9.64-26.29-16.22c0,0,16.09-145.55,44.27-181,15.92-20,34.63-80.22,35.5-101.26s5.7-62.68,5.7-62.68Z" transform="translate(-33.6 -40.27)"/><path class="cls-30" d="M728.2,570.37c7.08,2.28,8.22,1.76,8.22,1.76s34.48-62.77,38-68.51,73.2-70.39,73.2-70.39l-17.91-66.81S750.39,469.1,741.83,483.83c-14.15,24.34-22.44,80.89-22.44,80.89A20.71,20.71,0,0,0,728.2,570.37Z" transform="translate(-33.6 -40.27)"/><path class="cls-31" d="M911.32,459.45c-.25,13.72-1,29.14-2.12,44.81-.07.93-.13,1.86-.2,2.78-.68,9.71-1.43,19.43-2.29,28.92-.34,3.8-.71,7.56-1.09,11.25l0,.5c0,1.38-.2,2.88-.36,4.25-3.49,35.52-7.16,63.59-7.83,64a4.05,4.05,0,0,1-2.73.7c-9.32-1.17-37.11.94-59.87-4-19.2-4-35.74-11.73-53.26-22.08-2.32-1.38-7.63-5-7.2-7.74.43-3,1.21-7.31,2.21-12.75,3.45-18.89,9.41-51.4,11.44-89.44q.59-10.64,1.72-21A317.4,317.4,0,0,1,799,409.63c7.8-28.1,19.27-49.61,33.65-58,1.88-1.05,12,5.38,21.28,11.34a41,41,0,0,0,26.39,6.25l7.73,8.55c9.36,10.88,19.33,25.37,22.05,46,.21,1.52.38,3.14.53,4.86A303.64,303.64,0,0,1,911.32,459.45Z" transform="translate(-33.6 -40.27)"/><path class="cls-30" d="M911.32,459.45c-.25,13.72-1,29.14-2.12,44.81-.07.93-.13,1.86-.2,2.78-53.21-33.3-61.41-94.26-61.41-94.26,26.18,1.15,47,7.17,63,15.78A303.64,303.64,0,0,1,911.32,459.45Z" transform="translate(-33.6 -40.27)"/><path class="cls-31" d="M1045.77,485.69c.55-7.89-3.53-9.2-3.53-9.2S962,462,955.18,459.8,890,397,890,397s-22.36-25.21-40.66-19.64c-15.91,4.84-22.12,17.25-24.24,29.07a34.83,34.83,0,0,0,16.17,35.74c27.38,16.79,82.19,49.88,95.1,53.66,28.74,8.43,105.94.68,105.94.68A25,25,0,0,0,1045.77,485.69Z" transform="translate(-33.6 -40.27)"/><polygon class="cls-24" points="1083.55 516.68 1214.14 822.07 1427.11 822.07 1563.73 516.68 1083.55 516.68"/><path class="cls-32" d="M1599.33,572.11H1109.11A16.07,16.07,0,0,1,1093,556h0A16.08,16.08,0,0,1,1109.11,540h490.22A16.08,16.08,0,0,1,1615.41,556h0A16.07,16.07,0,0,1,1599.33,572.11Z" transform="translate(-33.6 -40.27)"/><path class="cls-32" d="M1214.14,822.07h212.18a0,0,0,0,1,0,0v82.25a22,22,0,0,1-22,22H1236.13a22,22,0,0,1-22-22V822.07A0,0,0,0,1,1214.14,822.07Z"/><path class="cls-33" d="M1519.75,1130l20.16-10.93a5.07,5.07,0,0,1,5.3.33q3,2.1,6.19,4a84.66,84.66,0,0,0,12.14,6,5,5,0,0,1,3.22,4.65l.27,24a4.92,4.92,0,0,0,4.59,4.88l21.85,1.65a4.87,4.87,0,0,0,5.14-4l4-21.7a4.89,4.89,0,0,1,4.28-4,88.45,88.45,0,0,0,26.8-7.86,5.06,5.06,0,0,1,6,1.35l8.54,10.37a5.1,5.1,0,0,0,6.66,1l18.15-12a5.05,5.05,0,0,0,1-.84,4.9,4.9,0,0,0,.65-5.66l-8.14-15.07-2-3.67a87.8,87.8,0,0,0,7-10.21,89.48,89.48,0,0,0,7-15,4.88,4.88,0,0,1,4.56-3.26l19.31-.2a5.06,5.06,0,0,0,5-4.7l1.26-16.7.35-4.79a5.12,5.12,0,0,0-4.17-5.44l-18.13-3.38a4.89,4.89,0,0,1-4-4.12,87.46,87.46,0,0,0-4.8-18.18c-.16-.53-.35-1-.55-1.49a3,3,0,0,1-.17-.5,5,5,0,0,1,1.66-5.29l16.8-13.9a3.6,3.6,0,0,0,.53-.5,5.11,5.11,0,0,0,.48-6.14l-11.94-18.11a5.06,5.06,0,0,0-6.63-1.67l-21,11.41a4.91,4.91,0,0,1-5.52-.54,87.92,87.92,0,0,0-11.17-7.76c-2.11-1.25-4.25-2.39-6.43-3.44a5.14,5.14,0,0,1-2.9-4.58l-.27-23a4.91,4.91,0,0,0-4.55-4.85l-21.62-1.6a5.15,5.15,0,0,0-5.46,4.19L1596,955.83a5.05,5.05,0,0,1-4.66,4.14,88.23,88.23,0,0,0-26.67,5.59,5,5,0,0,1-5.71-1.5l-12.51-15.15a5.2,5.2,0,0,0-6.83-1l-18.05,11.88a5,5,0,0,0-1.64,6.53l.47.88,9.47,17.51a5.08,5.08,0,0,1-.63,5.76v0a88.66,88.66,0,0,0-9.06,12.67c-1.43,2.44-2.71,4.91-3.9,7.43a5,5,0,0,1-4.47,2.91l-19.6.2a5.17,5.17,0,0,0-5.1,4.76l-1.6,21.53a5.67,5.67,0,0,0,.18,1.76,5.14,5.14,0,0,0,3.93,3.59l14.49,2.66a5.12,5.12,0,0,1,3.83,3.27,5.2,5.2,0,0,1,.28,1.38,88,88,0,0,0,8.81,33.7,5,5,0,0,1-.68,5.4,5.78,5.78,0,0,1-.61.6l-13.62,11.24a5,5,0,0,0-1,6.64l.27.42L1513,1128.3A5.14,5.14,0,0,0,1519.75,1130Zm110.88-114.69a58.82,58.82,0,0,1,6.82,8.59c4,6.12,6.87,17.14,6.33,24.43,0,.78-.13,1.55-.2,2.32-5.15,46.74-62.42,61-88.87,21.35-3.45-5.19-6.06-13.73-6.59-20.87a31.19,31.19,0,0,1,0-4.64,54.29,54.29,0,0,1,4.47-18C1566.19,998.11,1606.2,990.07,1630.63,1015.27Z" transform="translate(-33.6 -40.27)"/><path class="cls-34" d="M1527.43,886.14l11.23-6.39a2.85,2.85,0,0,1,3,.12c1.14.77,2.32,1.49,3.53,2.17a48,48,0,0,0,6.92,3.22,2.82,2.82,0,0,1,1.87,2.58l.43,13.51A2.76,2.76,0,0,0,1557,904l12.34.67a2.74,2.74,0,0,0,2.85-2.28l2-12.27a2.76,2.76,0,0,1,2.37-2.32,49.94,49.94,0,0,0,15-4.74,2.85,2.85,0,0,1,3.4.69l4.93,5.74a2.87,2.87,0,0,0,3.77.49l10.08-7a2.36,2.36,0,0,0,.55-.49,2.76,2.76,0,0,0,.31-3.19l-4.77-8.4-1.17-2a50.72,50.72,0,0,0,3.84-5.84,50.19,50.19,0,0,0,3.79-8.52,2.74,2.74,0,0,1,2.53-1.89l10.88-.34a2.84,2.84,0,0,0,2.76-2.7l.52-9.43.14-2.71a2.89,2.89,0,0,0-2.42-3l-10.25-1.7a2.75,2.75,0,0,1-2.32-2.27,49.9,49.9,0,0,0-2.92-10.19c-.1-.29-.21-.55-.33-.83a1.57,1.57,0,0,1-.1-.28,2.83,2.83,0,0,1,.88-3l9.3-8a4,4,0,0,0,.29-.29,2.88,2.88,0,0,0,.2-3.47l-6.94-10.07a2.85,2.85,0,0,0-3.75-.85l-11.72,6.67a2.75,2.75,0,0,1-3.11-.24,49.87,49.87,0,0,0-6.39-4.24q-1.81-1-3.66-1.86a2.92,2.92,0,0,1-1.7-2.55l-.42-13a2.78,2.78,0,0,0-2.62-2.69L1573,775a2.9,2.9,0,0,0-3,2.43l-1.59,9.71a2.86,2.86,0,0,1-2.59,2.38,49.77,49.77,0,0,0-15,3.47,2.83,2.83,0,0,1-3.23-.78l-7.23-8.39a2.93,2.93,0,0,0-3.86-.5l-10,6.91a2.8,2.8,0,0,0-.84,3.7l.27.49,5.55,9.76a2.87,2.87,0,0,1-.29,3.25h0a49,49,0,0,0-5,7.25c-.78,1.39-1.47,2.8-2.12,4.23a2.81,2.81,0,0,1-2.48,1.7l-11,.34a2.9,2.9,0,0,0-2.81,2.74l-.65,12.15a3,3,0,0,0,.12,1,2.9,2.9,0,0,0,2.26,2l8.2,1.33a2.87,2.87,0,0,1,2.19,1.79,3.4,3.4,0,0,1,.18.78,49.63,49.63,0,0,0,5.36,18.89,2.81,2.81,0,0,1-.33,3,2.65,2.65,0,0,1-.33.34l-7.54,6.5a2.82,2.82,0,0,0-.49,3.75l.16.24,6.75,9.81A2.9,2.9,0,0,0,1527.43,886.14Zm61.14-65.93a32.8,32.8,0,0,1,3.94,4.76,26.06,26.06,0,0,1,3.86,13.69c0,.45-.06.88-.09,1.31-2.35,26.4-34.46,35.13-49.83,13.08a27.1,27.1,0,0,1-4-11.69,16.54,16.54,0,0,1,0-2.61,30.63,30.63,0,0,1,2.3-10.17A26.78,26.78,0,0,1,1588.57,820.21Z" transform="translate(-33.6 -40.27)"/><path class="cls-34" d="M1028.43,977.37l19.6-10.62a4.91,4.91,0,0,1,5.14.32c1.93,1.36,3.94,2.65,6,3.87a83,83,0,0,0,11.8,5.79,4.88,4.88,0,0,1,3.13,4.52l.26,23.28a4.8,4.8,0,0,0,4.46,4.75l21.23,1.6a4.75,4.75,0,0,0,5-3.84L1109,986a4.75,4.75,0,0,1,4.16-3.9,86.18,86.18,0,0,0,26-7.64,4.9,4.9,0,0,1,5.83,1.31l8.3,10.07a5,5,0,0,0,6.47,1l17.63-11.66a4,4,0,0,0,1-.82,4.75,4.75,0,0,0,.64-5.49l-7.92-14.64-1.93-3.57a86.54,86.54,0,0,0,13.66-24.46,4.73,4.73,0,0,1,4.43-3.17l18.76-.2a4.93,4.93,0,0,0,4.86-4.56l1.22-16.23.34-4.65a5,5,0,0,0-4.05-5.29l-17.62-3.29a4.74,4.74,0,0,1-3.91-4,85.07,85.07,0,0,0-4.67-17.67c-.15-.51-.34-1-.53-1.44a3.17,3.17,0,0,1-.17-.49,4.9,4.9,0,0,1,1.62-5.15l16.32-13.5a3,3,0,0,0,.51-.49,4.93,4.93,0,0,0,.47-6l-11.6-17.6a4.92,4.92,0,0,0-6.44-1.61l-20.43,11.08a4.76,4.76,0,0,1-5.36-.53,86.71,86.71,0,0,0-10.85-7.54q-3.07-1.82-6.25-3.34a5,5,0,0,1-2.82-4.45l-.26-22.38A4.78,4.78,0,0,0,1132,789l-21-1.55a5,5,0,0,0-5.3,4.07l-3.11,16.68a4.9,4.9,0,0,1-4.53,4,85.79,85.79,0,0,0-25.91,5.44,4.89,4.89,0,0,1-5.55-1.46l-12.16-14.72a5,5,0,0,0-6.63-1L1030.23,812a4.82,4.82,0,0,0-1.59,6.34l.45.86,9.21,17a4.94,4.94,0,0,1-.61,5.59l0,0a85.58,85.58,0,0,0-8.79,12.32c-1.4,2.37-2.64,4.77-3.8,7.22a4.84,4.84,0,0,1-4.34,2.83l-19,.19a5,5,0,0,0-4.94,4.62l-1.56,20.92a5.62,5.62,0,0,0,.17,1.71,5,5,0,0,0,3.82,3.49l14.08,2.59a5,5,0,0,1,3.72,3.17,6,6,0,0,1,.28,1.35,85.58,85.58,0,0,0,8.55,32.74,4.81,4.81,0,0,1-.66,5.25,5.51,5.51,0,0,1-.6.58l-13.22,10.92a4.89,4.89,0,0,0-1,6.45l.27.41,11.29,17.16A5,5,0,0,0,1028.43,977.37Zm107.74-111.44a56.8,56.8,0,0,1,6.62,8.36c3.87,5.94,6.68,16.65,6.15,23.73,0,.76-.12,1.51-.19,2.25-5,45.42-60.65,59.31-86.34,20.75-3.36-5-5.89-13.34-6.41-20.28a29.47,29.47,0,0,1,0-4.51,53.19,53.19,0,0,1,4.34-17.45C1073.56,849.27,1112.44,841.45,1136.17,865.93Z" transform="translate(-33.6 -40.27)"/></svg>