<svg id="Layer_1" enable-background="new 0 0 497 497" height="512" viewBox="0 0 497 497" width="512" xmlns="http://www.w3.org/2000/svg"><g><g><path d="m338.4 32.141-338.4 100.427 158.601 100.428 338.399-100.428z" fill="#f2ce1b"/><path d="m158.601 497-158.601-100.427v-264.005l158.601 100.428z" fill="#f0e102"/><path d="m158.601 497 338.399-100.427v-264.005l-338.399 100.428z" fill="#fdf35b"/><path d="m457 145.077v263.367l40-11.871v-264.005z" fill="#faed16"/><path d="m293.442 144.735-158.601-100.428-134.841 88.261 158.601 100.428z" fill="#fff894"/><path d="m336.457 100.427-158.6-100.427 160.542 32.141 158.601 100.427z" fill="#fff894"/><path d="m200.932 440.731 253.737-75.506v-73.185l-253.737 75.506z" fill="#d3895e"/></g><g fill="#fff"><path d="m284.178 361.57c-4.142 0-7.5 3.358-7.5 7.5v21.253c0 4.142 3.358 7.5 7.5 7.5s7.5-3.358 7.5-7.5v-21.253c0-4.142-3.358-7.5-7.5-7.5z"/><path d="m383.709 331.063c-4.142 0-7.5 3.358-7.5 7.5v21.254c0 4.142 3.358 7.5 7.5 7.5s7.5-3.358 7.5-7.5v-21.254c0-4.142-3.358-7.5-7.5-7.5z"/><path d="m405.845 325.063c-4.142 0-7.5 3.358-7.5 7.5v21.254c0 4.142 3.358 7.5 7.5 7.5s7.5-3.358 7.5-7.5v-21.254c0-4.142-3.358-7.5-7.5-7.5z"/><path d="m427.981 319.063c-4.142 0-7.5 3.358-7.5 7.5v21.254c0 4.142 3.358 7.5 7.5 7.5s7.5-3.358 7.5-7.5v-21.254c0-4.142-3.358-7.5-7.5-7.5z"/><path d="m227.834 378.333c-4.142 0-7.5 3.358-7.5 7.5v21.253c0 4.142 3.358 7.5 7.5 7.5s7.5-3.358 7.5-7.5v-21.253c0-4.142-3.358-7.5-7.5-7.5z"/><path d="m249.512 373c-4.142 0-7.5 3.358-7.5 7.5v21.253c0 4.142 3.358 7.5 7.5 7.5s7.5-3.358 7.5-7.5v-21.253c0-4.142-3.358-7.5-7.5-7.5z"/><path d="m323.342 349.461c-4.142 0-7.5 3.358-7.5 7.5v21.253c0 4.142 3.358 7.5 7.5 7.5s7.5-3.358 7.5-7.5v-21.253c0-4.142-3.358-7.5-7.5-7.5z"/><path d="m344.544 344.032c-4.142 0-7.5 3.358-7.5 7.5v21.253c0 4.142 3.358 7.5 7.5 7.5s7.5-3.358 7.5-7.5v-21.253c0-4.142-3.357-7.5-7.5-7.5z"/></g></g></svg>