<?xml version="1.0" encoding="utf-8"?>
<!-- Generator: Adobe Illustrator 24.0.2, SVG Export Plug-In . SVG Version: 6.00 Build 0)  -->
<svg version="1.1" id="Capa_1" xmlns="http://www.w3.org/2000/svg" xmlns:xlink="http://www.w3.org/1999/xlink" x="0px" y="0px"
	 width="2122px" height="2122px" viewBox="0 0 2122 2122" style="enable-background:new 0 0 2122 2122;" xml:space="preserve">
<style type="text/css">
	.st0{enable-background:new    ;}
	.st1{fill:#FEB12C;}
	.st2{fill:#050725;}
	.st3{fill:#FF8001;}
	.st4{fill:#ADCFE4;}
	.st5{fill:#FA5E5F;}
	.st6{fill:#01A0C6;}
	.st7{fill:#241B3F;}
	.st8{fill:#060629;}
	.st9{fill:#3E3452;}
	.st10{fill:#71CADF;}
	.st11{fill:#FB9588;}
	.st12{fill:#FFFFFF;}
	.st13{fill:#180C0A;}
	.st14{fill:#F9D179;}
</style>
<g>
	<g>
		<g class="st0">
			<g>
				<path class="st1" d="M679.25,1578.23l-132.3-76.88c6.46,3.75,15.41,3.25,25.21-2.42c19.54-11.27,35.48-38.83,35.42-61.27
					l132.29,76.87c0.07,22.45-15.88,50-35.42,61.28C694.65,1581.47,685.71,1581.98,679.25,1578.23z"/>
			</g>
			<g>
				<polygon class="st1" points="739.88,1514.54 607.59,1437.66 607.39,1366.98 739.68,1443.87 				"/>
			</g>
			<g>
				<path class="st2" d="M679.25,1578.23l-132.3-76.88c-6.38-3.7-10.34-11.55-10.38-22.7l132.29,76.88
					C668.9,1566.67,672.87,1574.52,679.25,1578.23z"/>
			</g>
			<g>
				<polygon class="st2" points="739.68,1443.87 607.39,1366.98 607.32,1345.32 739.61,1422.2 				"/>
			</g>
			<g>
				<path class="st1" d="M650.24,1261.51c-0.07-24.8-8.81-42.24-22.92-50.44l132.29,76.88c14.11,8.2,22.85,25.64,22.92,50.44
					c0.1,35.17-17.32,75.79-42.86,105.48l-132.29-76.88C632.91,1337.3,650.34,1296.68,650.24,1261.51z"/>
			</g>
			<g>
				<path class="st2" d="M607.32,1345.32c-0.03-11.13-3.99-18.98-10.36-22.68l132.29,76.88c6.37,3.71,10.34,11.55,10.37,22.68
					C699.93,1399.14,647.01,1368.39,607.32,1345.32z"/>
			</g>
			<g>
				<polygon class="st2" points="668.87,1555.54 536.58,1478.65 536.38,1407.99 668.67,1484.87 				"/>
			</g>
			<g>
				<path class="st1" d="M891.93,845.37l132.29,76.88c-8.61-5-20.51-4.32-33.58,3.22l-132.29-76.88
					C871.43,841.04,883.33,840.37,891.93,845.37z"/>
			</g>
			<g>
				<polygon class="st2" points="668.67,1484.87 536.38,1407.99 536.32,1386.32 668.61,1463.2 				"/>
			</g>
			<g>
				<path class="st2" d="M596.95,1322.64l132.29,76.88c-6.48-3.76-15.43-3.25-25.28,2.44l-132.29-76.88
					C581.52,1319.39,590.48,1318.88,596.95,1322.64z"/>
			</g>
			<g>
				<path class="st1" d="M516.01,1402.69c5.93,3.44,12.8,5.26,20.37,5.3l132.29,76.88c-7.57-0.04-14.44-1.86-20.37-5.3
					C608.62,1456.5,555.7,1425.75,516.01,1402.69z"/>
			</g>
			<g>
				<path class="st2" d="M668.61,1463.2l-132.29-76.88c-0.06-22.45,15.88-50,35.36-61.24l132.29,76.88
					C684.49,1413.2,668.54,1440.75,668.61,1463.2z"/>
			</g>
			<g>
				<path class="st2" d="M703.96,1401.96c19.54-11.28,35.59-2.2,35.65,20.25l0.06,21.66l0.2,70.67c0.07,22.45-15.88,50-35.42,61.28
					c-19.47,11.24-35.52,2.17-35.59-20.28l-0.2-70.67l-0.06-21.67C668.54,1440.75,684.49,1413.2,703.96,1401.96z"/>
			</g>
			<g>
				<polygon class="st1" points="947.98,950.1 815.69,873.23 858.36,848.59 990.64,925.47 				"/>
			</g>
			<g>
				<path class="st2" d="M627.32,1211.07l132.29,76.88c-14.3-8.3-34.09-7.13-55.95,5.5l-132.29-76.88
					C593.23,1203.94,613.02,1202.77,627.32,1211.07z"/>
			</g>
			<g>
				<polygon class="st1" points="852.77,1005.08 720.48,928.2 815.69,873.23 947.98,950.1 				"/>
			</g>
			<g>
				<path class="st2" d="M648.3,1479.56l-132.29-76.88c-14.12-8.21-22.87-25.65-22.95-50.43c-0.14-49.92,34.92-110.64,78.3-135.7
					l132.29,76.88c-43.38,25.04-78.44,85.77-78.3,135.69C625.43,1453.91,634.19,1471.36,648.3,1479.56z"/>
			</g>
			<g>
				<path class="st2" d="M703.66,1293.45c43.45-25.08,78.73-4.97,78.87,44.95c0.1,35.17-17.32,75.79-42.86,105.48l-0.06-21.66
					c-0.06-22.45-16.11-31.53-35.65-20.25c-19.47,11.24-35.42,38.8-35.36,61.24l0.06,21.67c-25.61-0.15-43.21-20.55-43.31-55.73
					C625.22,1379.21,660.28,1318.49,703.66,1293.45z"/>
			</g>
			<g>
				<path class="st1" d="M345.1,1908.57l-132.3-76.88c-8.49-4.93-13.78-15.39-13.82-30.2l132.3,76.88
					C331.32,1893.18,336.61,1903.64,345.1,1908.57z"/>
			</g>
			<g>
				<polygon class="st1" points="509.9,1203.03 377.61,1126.15 720.48,928.2 852.77,1005.08 				"/>
			</g>
			<path class="st2" d="M852.29,837.97c-0.17-59.53-8.71-106.34-39.59-124.29L680.41,636.8c30.89,17.95,39.43,64.77,39.6,124.29
				l0.47,167.11l132.29,76.88L852.29,837.97z"/>
			<g>
				<polygon class="st1" points="414.68,1258 282.39,1181.13 377.61,1126.15 509.9,1203.03 				"/>
			</g>
			<g>
				<polygon class="st1" points="331.28,1878.37 198.98,1801.5 197.52,1284.4 329.81,1361.29 				"/>
			</g>
			<g>
				<polygon class="st1" points="376.88,1279.83 244.59,1202.95 282.39,1181.13 414.68,1258 				"/>
			</g>
			<g>
				<path class="st3" d="M990.64,925.47c25.95-14.98,47.29-2.89,47.37,26.93l1.47,517.09c0.08,29.81-21.12,66.54-47.07,81.52
					l-613.77,354.36c-25.95,14.98-47.29,2.82-47.37-27l-1.47-517.09c-0.09-29.82,21.12-66.48,47.07-81.45l37.8-21.83l95.21-54.97
					l342.87-197.95l95.21-54.98L990.64,925.47z M739.68,1443.87c25.53-29.69,42.96-70.3,42.86-105.48
					c-0.14-49.92-35.43-70.03-78.87-44.95c-43.38,25.04-78.44,85.77-78.3,135.69c0.1,35.18,17.71,55.58,43.31,55.73l0.2,70.67
					c0.06,22.45,16.12,31.52,35.59,20.28c19.54-11.28,35.48-38.83,35.42-61.28L739.68,1443.87"/>
			</g>
			<g>
				<path class="st1" d="M329.81,1361.29l-132.29-76.88c-0.09-29.82,21.12-66.47,47.07-81.45l132.29,76.88
					C350.93,1294.81,329.73,1331.47,329.81,1361.29z"/>
			</g>
			<g>
				<path class="st4" d="M769.18,586.37c171.39-93.85,177.96,66.7,178.04,94.73l0.76,269.01l-95.21,54.98l-0.47-167.11
					c-0.31-109.27-28.83-175.7-172-99.39c-143.13,88.98-171.18,188.07-170.87,297.34l0.47,167.11L414.68,1258l-0.76-269.01
					c-0.08-28.03,5.57-195.63,176.92-299.67l88.45-51.07L769.18,586.37z"/>
			</g>
			<path class="st2" d="M767.38,490.16c-26.31-15.29-67.14-15.36-130.5,19.33L547,561.38l-88.44,51.06
				c-171.36,104.04-177,271.65-176.93,299.67l0.76,269.02L414.68,1258l-0.76-269.01c-0.08-28.02,5.57-195.63,176.92-299.66
				l88.45-51.07l89.88-51.89c63.36-34.69,104.19-34.62,130.5-19.33L767.38,490.16z"/>
		</g>
	</g>
	<g>
		<g>
			<g>
				<g>
					<g>
						<path class="st5" d="M1326.29,980.77c-0.55,10.64,5.66,22.64,8.39,28.64c1.57,3.61,5.93,5.11,9.48,3.34l25.78-30.55
							c2.25-1.77,12.61-31.17,20.59-54.77c1.64-4.77,3.21-9.41,4.5-13.43c1.57-4.5,2.8-8.39,3.75-11.19c0.82-2.59,1.36-4.3,1.5-4.84
							l-19.23,0.75l-18.34-11.8l-8.05,9.82l-6.27,7.78l-15.14,18.55c0,0-3.75,24.76-5.73,43.99
							C1326.91,972.25,1326.5,977.02,1326.29,980.77z"/>
						<path class="st5" d="M1328.2,981.18c2.39,14.39,7.71,3.68,10.5-3.89c2.86-7.57,12.68-33.63,13.36-35.13
							c0.41-1.02,9.48-10.43,15.28-22.03c2.73-5.39,4.7-11.18,4.77-16.84c0.14-13.03-11.25-9.41-17.46-6.55
							c-2.25,1.09-3.82,2.05-3.82,2.05s-1.57,1.77-3.82,4.43c-4.37,5.25-11.39,14.12-13.77,19.85c-2.66,6.41-5.52,27.69-5.73,43.99
							C1327.38,972.59,1327.59,977.57,1328.2,981.18z"/>
					</g>
					<path class="st6" d="M1344.57,900.64c0,0,0.88,0.95,2.45,2.59c0.41,0.41,0.89,0.82,1.37,1.3c4.15,4.09,11.18,10.57,18.96,15.62
						c7.77,5.12,16.23,8.8,23.18,7.3c2.66-0.54,5.05-1.91,7.16-4.23c1.77-2.05,3.68-4.43,5.66-7.23
						c3.75-5.46,7.78-12.34,11.94-20.12c1.77-3.34,3.61-6.89,5.45-10.57c2.46-5.18,5.05-10.64,7.64-16.23
						c6.62-14.53,13.16-30.35,19.3-45.83c18.08-45.55,32.4-88.38,32.4-88.38l-7.3-21.69l-9.41-28.03l-9.89,3.2l-26.67,8.8
						l-0.89,0.27C1425.93,697.4,1363.32,867.7,1344.57,900.64z"/>
					<path class="st6" d="M1425.93,715.95c0,0,7.44,17.19,27.89,9.96c3.96-1.43,8.39-3.75,13.3-7.29c1.98-1.44,3.89-3.21,5.66-5.46
						c39.83-47.53,44.67-269.59,44.67-269.59s-39.69-7.43-64.86,28.5c-21.07,30.01-24.14,172.75-25.78,225.06
						C1426.48,707.36,1426.27,714.18,1425.93,715.95z"/>
					<path class="st7" d="M1359.23,1248.66c0,0,0.27,1.02,0.89,2.79c2.39,6.89,10.09,25.03,28.37,39.55
						c32.6,25.79,53.06-8.12,53.06-8.12c7.44-9.95,19.17-29.11,32.61-52.44c13.16-22.64,27.89-49.24,42.07-75.22
						c4.43-8.12,8.8-16.17,13.03-24.01c26.94-49.78,48.9-91.86,48.9-91.86c7.71-16.91,7.5-35.47,2.32-54.22
						c-7.02-25.44-23.25-51.29-41.67-73.86c-1.91-2.39-3.89-4.78-5.87-7.09c-9.62-11.19-19.57-21.48-28.98-30.28
						c-2.32-2.18-4.64-4.3-6.88-6.34c-0.27-0.2-0.55-0.48-0.82-0.68c-3.88-3.48-7.64-6.68-11.18-9.55
						c-0.61-0.48-1.29-1.02-1.91-1.57c-13.84-10.98-23.67-16.5-24.55-14.05c-2.25,6.28-4.43,12.55-6.61,18.89
						c0,0.14-0.07,0.34-0.14,0.48c-1.09,3.27-2.25,6.62-3.34,9.96c-1.02,3-2.05,6-3,9.07c-0.41,1.16-0.75,2.32-1.16,3.55
						c-3.89,12-7.71,24-11.32,36.01C1381.74,1089.34,1359.23,1248.66,1359.23,1248.66z"/>
					<g>
						<path class="st8" d="M1359.23,1583.38c0,0,9.82,24.35,26.87,27.55c17.05,3.21,95.21-5.59,95.21-5.59s31.37,3.82,55.51-16.16
							c24.08-19.92,19.78-27.82,19.78-27.82c-5.66-17.39-11.32-29.46-16.16-37.64c-7.44-12.69-12.76-16.17-12.76-16.17l-15.41-5.32
							c0,0-37.64,9.69-72.77,20.6c-20.26,6.21-39.76,12.89-50.67,18.27C1359.5,1555.7,1359.23,1582.43,1359.23,1583.38z"/>
						<path class="st7" d="M1359.3,1253.64l80.2,269.12c0,0,0,0,0,0.07c1.09,1.57,15.96,21.75,59.95,16.16
							c9.96-1.29,31.58-9.41,40.99-15.27c3-1.84,4.77-3.48,4.64-4.57c-3-25.45-27.63-87.23-38.4-164.64
							c-7.77-55.99-23.53-101.27-32.53-124.05c-4.09-10.3-6.75-15.96-6.75-15.96l-69.56-59.61l-37.71,96.57L1359.3,1253.64z"/>
					</g>
					<path class="st9" d="M1660.05,870.43c0,0,24.67,116.01,11.72,170.81c-9.13,38.62-33.23,77.22-61.9,89
						c-28.67,11.79-75.96,16.46-101.75-16.24c-4.3-5.46-14.99-90.23-17.83-102.17c-16.76-70.55-55.52-139.12-29.77-202.96
						C1472.02,780.36,1660.05,870.43,1660.05,870.43z"/>
					<path class="st10" d="M1442.57,859.3c0.41,1.3,0.96,2.53,1.5,3.75c1.22,2.8,2.66,5.46,4.43,7.98c1.43,2.18,3.07,4.23,4.91,6.14
						c0.21,0.27,0.41,0.48,0.75,0.75c1.57,1.77,3.41,3.48,5.39,5.05c10.16,8.52,23.67,14.87,38.8,19.57
						c1.16,0.34,2.39,0.75,3.68,1.09c6.34,1.84,13.03,3.41,19.84,4.77c5.52,1.09,11.19,2.05,16.92,2.87
						c28.84,4.09,58.38,4.77,80.2,4.77c4.5,0,8.87-0.07,13.02-0.28c13.84-0.61,25.71-2.38,35.05-6.61
						c9.75-4.57,16.71-11.66,20.39-22.98c3.41-10.57,3.55-33.28,3.14-60.01c0-0.69,0-1.44-0.07-2.25c-0.2-18-0.61-37.71-0.34-56.61
						c0.2-19.5,1.23-38.19,3.96-53.2c5.52-31.3,1.5-43.58,5.59-58.58c10.57-38.67,12.89-86.62,11.45-117.79
						c-0.27-5.18-1.64-10.36-4.22-14.79c0,0-0.07-0.07-0.07-0.14c-1.91-3.68-4.57-6.96-7.84-9.62
						c-8.93-7.23-19.64-14.12-30.42-20.19c-5.8-3.21-11.52-6.21-16.98-8.93c-2.66-1.3-5.19-2.52-7.57-3.68v-0.07h-0.07
						c-7.98-3.82-14.93-6.82-19.84-8.93c-2.59-1.09-4.64-1.91-5.93-2.46c-1.09-0.41-2.12-0.82-3.27-1.16h-0.07
						c-4.09-1.16-15.28-4.36-28.38-7.98c-11.93-3.27-25.44-6.95-36.69-9.89c-2.73-0.68-5.32-1.36-7.77-1.98
						c-4.91-1.23-8.94-2.18-11.8-2.8c-4.37-0.82-8.73-1.29-12.82-1.57c-4.5-0.14-8.73,0.34-12.27,0.27
						c-20.59-0.34-37.99,19.3-43.65,27.41c-15.68,22.37-20.32,81.91-10.64,161.43c1.5,11.93,2.25,32.53,2.59,55.65
						c0.2,12.14,0.27,24.96,0.34,37.58c0,25.44-0.14,50.13-0.2,67.04c-0.07,4.16-3.07,16.98-5.94,30.28
						C1444.27,838.57,1441,854.74,1442.57,859.3z"/>
					<path class="st5" d="M1541.67,579.82c3.82-0.89,32.26-44.26,59.61-67.25c1.84-1.5,3.68-3,5.46-4.3
						c1.36-1.02,2.73-1.98,4.09-2.86c18.08-11.66,33.49-20.53,33.21-25.03v-0.07c-7.98-3.82-14.93-6.82-19.84-8.93
						c-2.59-1.09-4.64-1.91-5.93-2.46c-1.09-0.41-2.12-0.82-3.27-1.16h-0.07c-4.09-1.16-15.28-4.36-28.38-7.98
						c-11.93-3.27-25.44-6.95-36.69-9.89c-2.73-0.68-5.32-1.36-7.77-1.98c-5.73,9.21-9.75,21.14-12.28,34.1
						C1521.07,526.63,1529.53,582.96,1541.67,579.82z"/>
					<path class="st5" d="M1549.85,422.9v59.81c0,0,1.3,8.32,8.39,14.87c4.16,3.82,10.23,7.09,19.23,7.77
						c3,0.21,6.27,0.14,9.96-0.27c1.84-0.21,3.62-0.48,5.25-0.82c28.64-5.52,31.58-26.25,31.58-26.25s0-2.52-0.07-6.62
						c-0.14-13.03-0.34-42.42-0.21-61.24c-0.07-0.07-0.07-0.07,0-0.14c-0.07-9.14,0.07-15.76,0.27-16.78l-14.53,5.8L1549.85,422.9z"
						/>
					<path class="st9" d="M1489.77,999.25c0,0,8.8,55.24,19.37,116c2.32,13.23,4.71,26.73,7.09,39.97
						c6.75,37.37,13.57,72.7,18.82,94.45c2.11,8.59,3.89,15.07,5.39,18.76c13.98,34.51,45.56,46.99,74,46.17
						c27.28-0.68,51.56-13.64,54.21-31.04c0.35-1.7,0.35-3.47,0.21-5.25c-9.41-99.64,3.68-184.27,4.43-244.97
						c0.14-5.66,0.07-11.11-0.07-16.3c-0.68-20.8-22.03-29.6-49.92-31.99c-13.3-1.16-28.1-0.95-42.83,0.07
						C1534.98,988.41,1489.77,999.25,1489.77,999.25z"/>
					<path class="st8" d="M1486.43,1714.19c4.36,3.75,28.64,5.32,53.39,4.84c19.78-0.41,40.04-2.18,50.68-5.18
						c24-6.82,81.02-72.22,83.88-80.07c1.57-4.36,2.59-19.91,1.98-34.91c-0.54-12.28-2.11-24.15-5.46-29.2l-45.89-3.89l-30.35-2.52
						c0,0-7.09,11.86-15.82,25.23c-7.77,12.01-16.85,25.3-23.19,32.19c-13.3,14.66-73.93,37.3-76.11,48.56
						C1477.29,1680.5,1478.52,1707.5,1486.43,1714.19z"/>
					<path class="st9" d="M1533.82,1249.07c0,0,41.6,316.85,43.71,336.22c0.14,1.09,0.55,2.18,1.3,3.2
						c5.05,7.3,24.14,13.23,45.01,15.42c19.23,2.05,39.96,0.95,52.51-5.05c6.28-2.93,10.5-7.09,11.53-12.69
						c0,0-7.71-132.71-6.82-151.34c1.91-42.14-5.86-106.66-12.41-151.27c-4.3-29.32-7.98-49.99-7.98-49.99l-49.72,15.07
						l-37.58,11.39l-8.04,4.09l-30.29-14.46L1533.82,1249.07z"/>
					<g>
						<path class="st10" d="M1630.75,829.69c2.2,5.1,6.65,8.96,14.86,10.62c12.71,2.56,31.52-0.78,41.09-10.13
							c21.21-20.71,29.72-49.74,37.16-77.59c14.43-53.94,27.02-110.95,20.27-167.29c-3.56-29.72-16.92-60.16-45.06-72.09
							c-16.3-6.91-33.34,6.59-43.69,19.15c-13.1,15.89-12.43,37.46-11.09,56.85c1.66,24.12,1.84,48.01,0.97,72.18
							c-1.12,31.11-3.59,62.18-7.41,93.08c-1.83,14.81-3.8,29.67-6.36,44.38C1629.64,809.48,1627.11,821.27,1630.75,829.69z"/>
						<g>
							<g>
								<path class="st11" d="M1390.13,911.48c0.27,0.89,2.12,1.7,4.91,2.52c2.25,0.68,5.18,1.36,8.32,1.98
									c9.34,1.77,20.59,3.28,22.57,4.37l7.09-0.68l28.85-2.87l2.53-0.27c2.79,0.88,21.21-6.27,35.32-12
									c0.75-0.27,1.57-0.61,2.32-0.89c6.96-2.8,12.48-5.12,13.91-5.59l-11.52-9.41l-0.48-14.73l-0.2-7.09l-6.89,0.07h-0.62
									l-13.64,0.14l-10.91,0.07c1.3-3.07-0.2,0.34-17.53,10.84c-0.2,0.14-0.41,0.27-0.61,0.34c-1.3,0.82-2.59,1.57-4.09,2.46
									c-1.57,0.89-3.27,1.91-5.12,2.93c-1.84,1.02-3.82,2.11-5.93,3.27c-3.96,2.19-13.5,5.32-23.12,8.93
									c-5.94,2.18-11.87,4.57-16.51,6.96C1392.99,905.75,1389.24,908.75,1390.13,911.48z"/>
							</g>
							<path class="st11" d="M1493.89,856.33l-44.11,4.96c0,0-26.7,7.73-39.51,17.95c-8.2,0.92-1.43,12.86,19.21,2.7
								c13.28-6.53,39.42,4.2,39.42,4.2l30.84-9.28L1493.89,856.33z"/>
						</g>
						<path class="st10" d="M1664.62,744.61c0,0-149.48,91.6-184.98,113.37c0,0,17.72,57.95,31,54.09
							c37.72-10.97,136.9-60.41,167.21-75.72c5.8-2.93,10.46-7.66,13.31-13.51l18.62-38.16L1664.62,744.61z"/>
					</g>
					<path class="st12" d="M1541.7,579.83c3.77-0.93,32.23-44.24,59.56-67.22c-20.61-5.28-47.15-14.59-71.45-30.57
						C1521.1,526.61,1529.55,582.94,1541.7,579.83z"/>
				</g>
			</g>
			<path class="st11" d="M1486.09,335.54c0,53.6,20.66,101.61,63.77,102.77c0.55,0.07,1.09,0.07,1.64,0.07
				c18.89,0,37.1-5.32,53.13-14.53c6.89-3.89,13.37-8.59,19.3-13.78c0,0,0,0,0.07-0.07c0-0.07,0.07-0.14,0.14-0.2
				c19.98-17.67,34.1-42.08,37.78-69.02c10.64-77.34-42.49-115.33-101.41-106.87c-25.17,3.61-43.11,14.18-55.04,30.07
				c-5.59,7.43-9.89,16.09-13.03,25.64C1488.07,303.14,1486.09,318.62,1486.09,335.54z"/>
			<path class="st13" d="M1481.52,268.97c-4.64,5.05-14.8,6.75-14.8,6.75c4.64,12.61,25.71,13.91,25.71,13.91s15.21,10.5,37.1,12.62
				c16.71,1.64,39.83-1.02,39.83-1.02s-0.81,26.32,21.69,45.29c13.02,10.98,16.02,31.64,16.02,31.64c1.84,2.32,3.21,2.25,4.16,0.95
				c2.46-2.86,3-11.53,3-11.53c8.05-17.66,19.37-25.98,26.53-7.02c6.75,17.94-14.32,46.24-16.64,49.24
				c-0.07,0.07-0.14,0.14-0.14,0.2c-0.07,0.07-0.07,0.07-0.07,0.07s0,0.07,0.07,0.07c6.27,10.36,20.05,4.23,20.05,4.23
				c-2.66-14.73,29.26-72.91,33.01-108.3c3.82-35.39-20.66-43.44-20.66-43.44c-12.34-78.36-111.37-51.7-134.42-34.1
				c-29.94,22.71-60.7,15.14-60.7,15.14c0.48,3.41,1.37,6.34,2.46,8.94C1469.45,266.58,1481.52,268.97,1481.52,268.97z"/>
		</g>
		<g>
			<g class="st0">
				<g>
					<path class="st1" d="M1063.58,872.86l70.08-40.73c6.78-3.94,10.99-12.28,11.03-24.12l-70.09,40.73
						C1074.56,860.58,1070.35,868.92,1063.58,872.86z"/>
				</g>
				<g>
					<polygon class="st1" points="1074.6,848.74 1144.69,808.01 1145.06,675.55 1074.97,716.29 					"/>
				</g>
				<g>
					<polygon class="st1" points="1074.97,716.29 1145.06,675.55 1069.7,632.04 999.61,672.78 					"/>
				</g>
				<g>
					<path class="st3" d="M999.61,672.78l-0.38,132.45c-0.07,23.82,16.83,53.09,37.56,65.05c20.73,11.97,37.74,2.28,37.81-21.54
						l0.38-132.46L999.61,672.78z"/>
				</g>
			</g>
			<g class="st0">
				<g>
					<path class="st1" d="M1193.8,948.04l70.09-40.73c6.77-3.94,10.99-12.29,11.02-24.12l-70.09,40.73
						C1204.79,935.76,1200.57,944.11,1193.8,948.04z"/>
				</g>
				<g>
					<polygon class="st1" points="1204.82,923.93 1274.91,883.2 1275.28,750.74 1205.19,791.47 					"/>
				</g>
				<g>
					<polygon class="st1" points="1205.19,791.47 1275.28,750.74 1199.92,707.23 1129.83,747.96 					"/>
				</g>
				<g>
					<path class="st3" d="M1129.83,747.96l-0.38,132.46c-0.07,23.82,16.83,53.09,37.56,65.05c20.73,11.97,37.74,2.28,37.8-21.54
						l0.38-132.45L1129.83,747.96z"/>
				</g>
			</g>
			<g class="st0">
				<g>
					<path class="st14" d="M1038.77,530.63l-70.09,40.73c6.44-3.74,15.36-3.23,25.17,2.43l70.09-40.73
						C1054.13,527.39,1045.21,526.89,1038.77,530.63z"/>
				</g>
				<g>
					<path class="st1" d="M1756.34,1141.38c-18.65-11.71-33.64-38.25-33.58-59.91c-23.36,13.58-46.72,27.16-70.09,40.73
						c-0.06,21.66,14.93,48.2,33.59,59.91C1707.29,1169.89,1735.32,1153.6,1756.34,1141.38z"/>
				</g>
				<g>
					<path class="st1" d="M1722.76,1081.48c0.04-11.07,3.98-18.87,10.3-22.55l-70.09,40.73c-6.33,3.68-10.27,11.48-10.31,22.55
						C1676.04,1108.63,1699.4,1095.05,1722.76,1081.48z"/>
				</g>
				<g>
					<path class="st1" d="M1733.07,1058.93l-70.09,40.73c6.42-3.73,15.3-3.23,25.05,2.4l70.09-40.73
						C1748.36,1055.7,1739.49,1055.2,1733.07,1058.93z"/>
				</g>
				<g>
					<polygon class="st1" points="1680.09,1065.65 1750.18,1024.92 1719.89,1007.43 1649.8,1048.16 					"/>
				</g>
				<g>
					<polygon class="st1" points="1720.19,1120.63 1790.27,1079.9 1758.12,1061.33 1688.03,1102.06 					"/>
				</g>
				<g>
					<path class="st1" d="M1705.24,1068.06l70.09-40.73c-6.45,3.75-15.37,3.25-25.16-2.41l-70.09,40.73
						C1689.88,1071.3,1698.79,1071.8,1705.24,1068.06z"/>
				</g>
				<g>
					<polygon class="st14" points="1650.07,952.66 1720.16,911.93 1063.93,533.06 993.85,573.79 					"/>
				</g>
				<g>
					<path class="st1" d="M1705.24,1068.06l70.09-40.73c6.36-3.7,10.32-11.54,10.36-22.64l-70.09,40.73
						C1715.57,1056.52,1711.61,1064.36,1705.24,1068.06z"/>
				</g>
				<g>
					<path class="st1" d="M1842.71,1260.43l70.09-40.73c-6.41,3.73-15.28,3.22-25.04-2.41l-70.09,40.73
						C1827.43,1263.66,1836.3,1264.16,1842.71,1260.43z"/>
				</g>
				<g>
					<polygon class="st1" points="1782.66,1156.7 1852.75,1115.96 1790.27,1079.9 1720.19,1120.63 					"/>
				</g>
				<g>
					<polygon class="st1" points="1715.6,1045.41 1785.69,1004.68 1785.73,990.53 1715.64,1031.26 					"/>
				</g>
				<g>
					<polygon class="st1" points="1680.36,970.15 1750.45,929.42 1720.16,911.93 1650.07,952.66 					"/>
				</g>
				<g>
					<path class="st1" d="M1715.64,1031.26l70.09-40.73c0.06-22.4-15.82-49.88-35.29-61.11l-70.09,40.73
						C1699.82,981.38,1715.7,1008.86,1715.64,1031.26z"/>
				</g>
				<g>
					<path class="st3" d="M993.85,573.79c-19.49-11.25-35.45-2.16-35.51,20.23l-0.04,14.16c-0.07,22.36,15.79,49.86,35.28,61.11
						l6.03,3.48l75.37,43.51l54.86,31.67l75.36,43.52l444.61,256.69l30.29,17.49c19.46,11.23,35.45,2.13,35.52-20.24l0.04-14.15
						c0.06-22.4-15.82-49.88-35.29-61.11l-30.29-17.48L993.85,573.79z"/>
				</g>
				<g>
					<path class="st1" d="M1842.71,1260.43l70.09-40.73c6.34-3.68,10.28-11.5,10.31-22.55c0.07-22.29-15.72-49.64-35.12-60.84
						l-70.09,40.73c19.4,11.2,35.19,38.55,35.13,60.84C1852.99,1248.94,1849.05,1256.75,1842.71,1260.43z"/>
				</g>
				<g>
					<path class="st1" d="M1912.8,1219.7c6.34-3.68,10.28-11.5,10.31-22.55l-70.09,40.73c-0.04,11.06-3.98,18.87-10.32,22.55
						C1863.74,1248.21,1891.77,1231.92,1912.8,1219.7z"/>
				</g>
				<g>
					<polygon class="st1" points="1817.9,1177.04 1887.99,1136.31 1852.75,1115.96 1782.66,1156.7 					"/>
				</g>
				<g>
					<path class="st1" d="M1758.57,902.28c-19.37-11.18-35.18-38.58-35.12-60.84c-23.36,13.58-46.72,27.15-70.09,40.73
						c-0.06,22.25,15.75,49.66,35.12,60.84C1709.5,930.79,1737.54,914.5,1758.57,902.28z"/>
				</g>
				<g>
					<path class="st3" d="M1688.03,1102.06c-19.37-11.18-35.3-2.14-35.36,20.14c-0.06,21.66,14.93,48.2,33.59,59.91
						c0.51,0.32,1.02,0.63,1.54,0.93l129.87,74.98c19.4,11.2,35.29,2.1,35.36-20.15c0.06-22.29-15.73-49.64-35.13-60.84
						l-35.24-20.35l-62.47-36.07L1688.03,1102.06z"/>
				</g>
				<g>
					<polygon class="st1" points="1720.19,1120.63 1790.27,1079.9 1790.73,920.85 1720.64,961.58 					"/>
				</g>
				<g>
					<polygon class="st1" points="1720.64,961.58 1790.73,920.85 1758.57,902.28 1688.48,943.01 					"/>
				</g>
				<g>
					<path class="st1" d="M1723.45,841.45c0.03-11.07,3.97-18.86,10.3-22.54l-70.08,40.73c-6.33,3.68-10.27,11.48-10.3,22.54
						C1676.72,868.6,1700.08,855.02,1723.45,841.45z"/>
				</g>
				<g>
					<path class="st14" d="M1733.75,818.9l-70.09,40.73c6.09-3.54,14.37-3.27,23.51,1.55c0.52,0.27,1.02,0.55,1.54,0.85l70.09-40.73
						c-0.52-0.3-1.03-0.57-1.54-0.85C1748.12,815.63,1739.84,815.37,1733.75,818.9z"/>
				</g>
				<g>
					<path class="st14" d="M1730.66,817.11l-70.08,40.73c6.41-3.73,15.29-3.22,25.05,2.41l70.09-40.73
						C1745.96,813.89,1737.09,813.38,1730.66,817.11z"/>
				</g>
				<g>
					<path class="st3" d="M1685.63,860.25c-19.4-11.2-35.29-2.14-35.35,20.15l-0.21,72.26l30.29,17.48
						c19.46,11.23,35.35,38.71,35.29,61.11l-0.04,14.15c-0.07,22.36-16.05,31.47-35.52,20.24l-30.29-17.49l-0.2,72.27
						c-0.06,22.25,15.73,49.64,35.13,60.84c0.52,0.3,1.02,0.58,1.54,0.85c-18.66-11.71-33.65-38.25-33.59-59.91
						c0.06-22.29,15.99-31.33,35.36-20.14l32.16,18.57l0.45-159.05l-32.16-18.57c-19.37-11.18-35.18-38.58-35.12-60.84
						c0.06-21.69,15.15-30.83,33.81-21C1686.66,860.86,1686.14,860.55,1685.63,860.25z"/>
				</g>
				<g>
					<path class="st14" d="M1757.26,820.45c-0.51-0.32-1.02-0.63-1.54-0.93l-70.09,40.73c0.52,0.3,1.03,0.61,1.54,0.93
						C1708.2,848.96,1736.23,832.67,1757.26,820.45z"/>
				</g>
				<g>
					<polygon class="st1" points="1818.35,1018 1888.44,977.26 1853.2,956.92 1783.11,997.65 					"/>
				</g>
				<g>
					<path class="st1" d="M1843.39,1020.4l70.09-40.73c-6.42,3.73-15.29,3.23-25.04-2.41l-70.09,40.74
						C1828.11,1023.63,1836.98,1024.13,1843.39,1020.4z"/>
				</g>
				<g>
					<path class="st1" d="M1843.39,1020.4l70.09-40.73c6.34-3.68,10.28-11.49,10.31-22.55l-70.09,40.73
						C1853.68,1008.91,1849.73,1016.72,1843.39,1020.4z"/>
				</g>
				<g>
					<path class="st3" d="M1853.7,997.85c-0.06,22.25-15.96,31.35-35.35,20.15l-35.24-20.35l-0.45,159.05l35.24,20.35
						c19.4,11.2,35.19,38.55,35.13,60.84c-0.06,22.25-15.96,31.35-35.36,20.15c19.4,11.2,35.29,2.1,35.36-20.15L1853.7,997.85z"/>
				</g>
				<g>
					<polygon class="st1" points="1853.03,1237.88 1923.11,1197.15 1923.79,957.12 1853.7,997.85 					"/>
				</g>
				<g>
					<polygon class="st14" points="1818.58,937.02 1888.67,896.28 1758.8,821.3 1688.71,862.03 					"/>
				</g>
				<g>
					<path class="st3" d="M1688.71,862.03c-0.52-0.3-1.02-0.57-1.54-0.85c-18.66-9.84-33.75-0.7-33.81,21
						c-0.06,22.25,15.75,49.66,35.12,60.84l32.16,18.57l62.48,36.07l35.24,20.35c19.39,11.2,35.29,2.1,35.35-20.15
						c0.06-22.29-15.73-49.64-35.12-60.83L1688.71,862.03z"/>
				</g>
				<g>
					<path class="st14" d="M1853.7,997.85l70.09-40.73c0.06-22.29-15.73-49.64-35.12-60.84l-70.09,40.73
						C1837.98,948.21,1853.77,975.56,1853.7,997.85z"/>
				</g>
			</g>
		</g>
	</g>
</g>
</svg>
